<?xml version='1.0' encoding='utf-8'?>
<svg xmlns="http://www.w3.org/2000/svg" width="400px" height="400px" version="1.1" style="shape-rendering:geometricPrecision; text-rendering:geometricPrecision; image-rendering:optimizeQuality; fill-rule:evenodd; clip-rule:evenodd" viewBox="2000 -3000 13000 18000"> <defs> <style type="text/css">  .fil1 {fill:rgb(229, 93, 88)} .fil0 {fill:transparent}  </style> </defs> <g id="Layer_x0020_1"> <metadata id="CorelCorpID_0Corel-Layer"/> <path class="fil0" d="M6669 9086c23,41 18,38 0,69 -3,-5 -10,-17 -10,-14 0,3 -6,-11 -6,-14 4,-50 -14,-12 16,-42zm1131 -221l-85 19c30,-91 109,-142 216,-149 -36,134 -99,-12 -131,130zm-1708 -104c70,47 54,46 107,133 47,77 48,83 40,184 -77,-85 13,-27 -90,-67 -26,61 -20,109 -90,111l-23 -108c-45,-126 -57,-42 29,-178l26 -75zm289 -109c116,95 79,137 177,104l-44 107c-16,-11 -173,-158 -133,-211zm-1412 -386c4,-80 29,-111 56,-181l132 5c19,41 31,89 33,153 -112,114 -121,102 -221,22zm1745 -290c50,36 62,37 113,85l-4 117c-134,49 -90,74 -239,104l34 155c-67,-13 -169,-153 -186,-207 93,16 12,13 106,41 66,-202 73,-9 73,-260l103 -35zm-412 11c107,7 154,114 161,186l-88 0 -38 -112c-3,2 -10,7 -13,9l-23 12 1 -95zm-235 -144c-2,-155 -72,-193 -97,-310 2,-1 31,-20 34,-21l26 -23c-30,-82 -106,-184 -48,-279 82,124 -29,117 144,338 87,111 -35,327 -5,534 16,113 32,80 -6,136 -54,-102 -46,-237 -48,-374zm1734 1022c78,-12 140,-66 192,-65 -15,-119 5,-25 -33,-89 31,-50 41,-52 53,-123 80,-11 274,-24 217,-142 131,-17 -13,-39 227,-101l234 -32c40,-4 45,-16 48,-18 7,-28 47,19 -12,-42 -56,-57 -68,-29 -76,-129 -68,26 -73,33 -102,9 19,-53 -2,0 31,-43 16,-21 12,-6 30,-46 -40,-89 -26,-137 -160,-129 -164,10 -77,15 -215,-36 -26,-197 -161,-173 -17,-308l-66 -43 61 -50c-100,-10 -52,-10 -82,-34 28,-102 15,-28 48,-95 16,-33 19,-66 28,-104 121,13 -1,8 118,44 -25,-89 -61,-102 -92,-185l-41 -93c-41,-105 -79,-180 -154,-256 43,-422 -156,-754 -570,-822 -319,-53 -1045,-115 -1330,-73 -187,28 -116,62 -417,48 -90,-4 -135,19 -202,26 -66,7 -165,7 -234,8 27,-36 7,-36 59,-56 89,-33 405,24 428,-73 7,-30 190,-16 220,-16l-274 -37c-99,0 -190,1 -261,38 46,24 150,-12 231,-12 -55,48 59,18 -100,46 -129,23 -448,67 -539,142 211,-36 128,-20 168,9 -453,176 -273,231 -501,568 -141,208 -303,494 -153,776 84,-99 61,-330 60,-451l94 80c3,-80 -3,-69 -36,-144 -48,-109 -15,-88 -7,-104 44,42 65,118 111,159l33 -99 119 -11 6 -113c88,35 -4,8 95,51l38 -117 55 28c114,35 87,-144 252,-4l68 -39 49 78c33,38 28,-37 42,98 4,-4 9,-10 12,-12l47 -32 3 89 61 -6c-30,85 -38,90 19,158 27,-23 54,-61 84,-91 1,-131 29,-159 41,-249 -119,-80 -176,-114 -209,-300 -34,130 19,37 -72,73 -38,-98 -59,-130 -125,-186 -83,-71 -117,-45 -187,-94 20,-71 52,-67 121,-41 5,2 10,5 15,7l199 87 60 -138 133 -31c-23,62 -40,73 -79,117 14,63 37,149 12,201 -10,20 -3,-8 -20,43 78,148 121,150 196,245l-31 202c139,-45 37,-80 154,-108 -50,116 -321,330 -456,417l79 322c27,59 20,34 56,58l103 -207c50,-118 116,-278 205,-373 64,-68 93,-55 111,-177 -27,-31 -45,-40 -59,-81 43,6 95,34 121,62 79,90 131,217 239,273 61,31 19,12 89,14 59,-262 -56,-380 -168,-592 -46,64 -1,31 -67,83 -35,-55 -4,-211 24,-267 33,-65 107,-125 185,-146 -40,133 -73,55 -98,189 104,-42 194,-79 310,-88 72,-6 55,-9 118,-32l6 126c10,-19 44,-88 58,-115l43 83 52 -85 14 63c34,-26 32,-24 69,-46 16,146 24,-2 88,102l63 -96c28,53 14,31 3,110l86 -69 1 88c84,0 36,13 89,-21 5,-22 -101,-59 75,-66l8 68c29,-16 40,-20 66,-38 -6,111 25,128 115,80l-1 73 110 -24 -23 88c59,2 34,-11 73,15 6,4 83,79 111,156 36,98 82,162 133,225 7,158 -53,115 -52,266 1,97 12,189 4,290 -3,37 -48,204 -74,238 -32,42 -117,71 -175,113 -261,188 -477,200 -773,49 -134,-68 -78,-5 -95,7 154,86 110,145 353,208 86,23 474,-6 349,169l-33 44c37,38 26,29 52,77 63,116 104,98 167,162l-67 44c18,115 87,150 29,231 -73,-38 -13,-22 -44,-96 -24,-58 -87,-96 5,-180l-28 -25c-5,-4 -21,-15 -27,-19 -174,-126 -126,-137 -220,-265 -22,-30 -295,-105 -383,-172 -55,-42 -273,-251 -306,-267 -45,-23 -56,-8 -114,-48l-234 -168 65 -14c-56,-57 17,-12 -49,-37 -5,-2 -67,-3 -72,-3 20,-130 24,1 -42,-110 -102,-173 -13,-428 -41,-476 -38,-31 -40,-38 -109,-51 -113,21 -213,301 -250,405 -58,161 -152,243 -72,552 28,-3 40,46 57,-58 16,-96 -10,-201 43,-289 3,5 7,10 8,13l4 116c-31,241 27,743 -110,862l-15 -81c-157,-19 -136,-89 -227,-165 -18,107 -37,90 -34,213 3,100 -3,115 -23,195l-98 -16c-9,-185 29,-259 -13,-452 -35,-162 -37,-244 -30,-415 -117,57 -228,67 -346,132 -25,192 25,236 -120,372 -101,94 -66,210 -84,385 -34,-33 -34,11 -45,-115 -6,-73 10,-49 -23,-109l-42 67c-25,63 6,13 -25,58 -44,-94 59,-282 99,-374l-91 -92 104 -39c7,-76 7,-278 -9,-346 -14,-59 -30,-66 -53,-124 -33,-83 -1,-58 -71,-83 -58,125 31,241 22,375 -9,134 -103,171 -127,313 -27,160 26,264 26,420 0,156 -60,227 -27,395 70,36 35,31 128,34 -42,-61 -57,-144 -37,-246l123 -20c12,-27 141,283 181,338 76,-108 38,-230 74,-340l48 51c2,-4 6,10 7,15l26 -130c77,106 -12,294 -48,395l61 20 -76 109c6,2 13,5 19,7l51 13c2,-4 9,3 13,5 -38,50 -37,38 -67,98 63,-40 12,-20 80,-40 120,-35 118,-86 201,-93 31,137 -33,85 -68,177 -19,50 -19,160 -32,213l202 -3c26,-58 53,-129 45,-220 -8,-83 -54,-108 41,-154 71,71 63,77 23,176 -53,131 -49,229 117,232 109,-173 90,-142 78,-349 48,14 91,31 137,50 -27,191 -166,201 -13,365 176,-18 144,-69 175,-227 18,-12 40,-24 63,-45 57,-52 -22,-10 68,-57 -88,376 -79,240 -131,407l128 21c56,-99 24,-121 64,-198 55,-27 286,-1 360,21 155,47 197,81 318,9 48,-214 60,-478 180,-641 59,-79 336,-239 480,73 89,-4 76,-5 173,0 5,-41 27,-50 80,-74l8 -56z"/> <path class="fil0" d="M8066 10450c13,-83 11,-54 100,-151 28,-31 8,-11 31,-28 7,146 13,167 -131,179zm202 -96c-16,-32 -59,-216 45,-269 -5,247 18,235 -45,269zm-2990 -50c-11,-33 1,-82 6,-120l92 5 6 164c-74,-2 -80,23 -104,-49zm-207 -193c67,23 19,-24 96,105 25,41 -6,138 -74,165 -42,-61 -71,-194 -22,-270zm-244 218c-5,-2 -53,32 -61,-131 -4,-74 8,-101 57,-134l5 265zm1088 72c-59,-117 46,-137 -65,-221l148 8 -45 57c1,195 9,132 -37,157zm-335 -223c-53,-3 -99,-8 -133,-21l-83 -64c134,3 84,34 202,59 81,17 179,-5 209,4 -53,49 -49,10 -75,78 -6,17 -11,78 -17,112 -18,93 -13,154 -113,158 8,-94 34,-47 32,-137 -1,-49 -15,-134 -21,-188zm-312 -89c-53,22 -125,-32 -149,-84 51,4 58,4 98,28 74,43 25,-3 51,56zm3089 -237c33,28 77,61 -9,97l9 -97zm-368 -688c124,7 266,340 271,407 -73,-8 -44,0 -88,-75 -85,-142 -181,-220 -183,-332zm462 618c11,-103 31,-83 37,-160 6,-80 -9,-152 37,-232 90,-156 214,-226 267,-533 -194,41 -299,179 -451,261l-161 64c-128,-36 -103,-69 -201,-138l-207 76c-1,135 29,121 66,198 30,62 26,126 54,191 47,111 125,256 130,376 -71,-27 -203,-290 -256,-351 11,-103 27,-15 14,-106 -3,-19 -31,-82 -34,-100 -21,-109 16,-158 -121,-157 -79,122 23,637 -2,830l-62 7c-2,-5 -10,-2 -16,-2 -46,137 -214,411 -356,455 37,-125 207,-202 254,-434 -69,16 -98,96 -256,132 -109,25 -76,-8 -159,2 -96,12 -12,32 -130,33 -31,-71 -14,-12 -25,-83 120,-60 107,10 161,-113l-251 8c-91,122 -30,102 -78,249l-76 5c22,-140 13,-180 -33,-333 -83,-23 -128,-18 -191,8 -9,90 -21,173 -34,219 -103,-26 -1,18 -101,-66 15,-103 15,-26 34,-101 33,-132 -183,-153 -278,-138l4 225c-170,-10 -166,-52 -213,-84l143 -14 -12 -168c-278,-189 -179,134 -196,206l-99 2c-7,-142 66,-189 -27,-308l-89 6c-28,44 -38,101 -41,152 -4,78 21,103 -48,135 -33,-43 -27,58 -28,-68 -1,-71 37,-142 32,-250l-126 38c-9,72 1,195 -34,256l-44 1c-54,-94 45,-162 23,-329 -123,-2 -60,-19 -102,49 -68,108 -56,107 -16,229 -77,-3 -68,-3 -85,-79 -10,-43 -12,-92 -14,-148l-131 54c5,101 6,25 26,104 25,99 1,55 -10,75 -57,-38 -45,-36 -66,-111l-45 -131c-91,197 -3,125 -18,333 -121,-60 -24,-146 -116,-241 -91,36 -50,64 -60,171 -8,78 -28,124 -4,199 34,105 153,210 101,346 -61,159 -5,263 -54,439 -40,145 -132,201 -82,358 48,-28 46,-54 81,-97l62 61 -9 -113 89 65c-21,-80 -49,-54 -13,-125 75,53 29,66 126,62 -25,-54 -36,-41 -31,-124 10,1 49,9 49,9l301 -15c106,-3 105,36 214,19 192,-29 194,46 273,-29 49,53 2,20 68,52l66 -55c71,65 38,3 158,33l42 -54c28,22 17,19 67,27l44 -77 89 48c4,-5 9,-12 11,-15l34 -52c55,48 -3,15 67,36 34,-75 16,-36 55,-75 28,53 1,28 61,61l40 -48 44 60c42,-49 28,-57 99,-85 9,58 2,79 87,112l26 -96c46,55 14,47 54,111 62,-43 21,-16 67,-87 84,31 95,7 159,-4 33,-6 122,-13 174,-20 -21,58 -46,79 -92,116l77 58c23,-68 61,-61 106,-125l-68 -22c33,-38 39,-56 65,-90l90 -64c78,-77 115,-220 150,-314 31,-82 15,-14 65,-93 53,-83 19,-115 97,-195 -59,-135 -13,-68 13,-208 11,-55 1,-92 -1,-153 33,28 15,1 42,40 3,4 6,10 8,14 2,4 4,10 6,15 83,192 -18,404 -55,597 -19,99 -31,627 -231,518 33,-101 140,-14 128,-185 -5,5 -10,12 -13,15 -3,2 -9,10 -13,13 -71,48 36,12 -36,13 -3,0 -31,-16 -38,-18 -41,96 -75,94 -91,208l433 10c103,-32 342,-310 400,-389 61,-83 6,-96 97,-182 -25,-28 -18,-54 -20,-96 -3,-92 10,13 -30,-76l128 -25c-40,-62 -5,-32 -109,-23 -15,-134 -22,-130 66,-172l28 -289z"/> <path class="fil0" d="M6942 2961c95,-2 72,-11 120,38 -52,23 -85,-11 -120,-38zm-510 -1549l11 -16c10,-8 18,-18 24,-30 -2,14 -5,33 -35,46zm44 -119l0 -11c3,-5 6,-10 8,-15 11,-4 21,-11 30,-20l7 -7 7 -7c3,-3 6,-7 9,-10 85,191 43,156 36,405l180 -30 -19 179 163 -27c-6,97 -21,82 -41,160 57,41 66,16 123,67 -91,262 -458,120 -408,365 151,17 282,-161 410,-227l-23 184 115 -24 -60 192 160 -14c-32,107 -46,40 -72,157l163 61 -17 101c114,17 190,96 196,201 -245,82 -332,-59 -307,159 -183,17 -179,-27 -313,-44 84,123 82,-8 120,142 -267,65 -306,-152 -491,-115 29,104 101,39 119,203l-179 -2c-1,124 81,19 66,184 -138,27 -35,-81 -241,-19 -43,113 -49,243 39,334 46,48 145,120 249,146 372,94 418,-224 542,-240 18,41 14,65 35,108 58,119 149,182 297,202 348,46 295,-157 486,-167 -100,279 -608,309 -761,79l-80 -109 -71 74c-64,64 -185,130 -286,133 -151,4 -340,-85 -413,-160 -233,-239 -39,-565 83,-816l325 -34c-59,-42 -125,-29 -202,-24 31,-56 -10,-17 33,-51 24,-19 42,-22 67,-28 95,-22 64,17 121,-41 -81,-43 -166,32 -271,40 48,-51 109,-79 134,-132l-157 59c74,-130 278,-141 452,-153l-31 -46c-2,-3 -7,-9 -11,-13 123,-2 64,22 138,-21 -40,-22 -129,-26 -223,-17 -29,31 -32,37 -67,60 -164,-21 -75,-8 -227,27 38,-98 61,-62 147,-137 -68,-43 -167,82 -208,113 33,-107 76,-137 129,-202 -25,-16 14,-20 -37,-13 -12,2 -37,12 -58,20 6,-116 26,-256 96,-296 -15,-139 1,-15 -31,-103l49 -101c48,-100 89,-99 11,-161 -4,-3 -12,-8 -17,-12l37 -489c-14,-7 -36,-12 -63,-17z"/> <path class="fil0" d="M9178 7112c4,6 63,-30 0,56 -13,-18 -49,5 0,-56zm182 16c7,-35 49,-140 122,-106l-14 23c-75,123 -38,80 -108,82zm-161 -413c52,-12 59,-17 113,-22l192 107c-88,50 -153,-7 -156,-19l-223 -26c42,-63 -16,-19 75,-41zm-281 82c25,-66 76,-121 162,-86 -30,35 -102,80 -162,86zm-153 -146c-64,0 -34,23 -59,-64 -12,-42 -21,-77 -27,-110 59,15 79,112 87,175zm-695 -425c33,103 22,39 65,128 29,60 30,84 27,159 -17,456 223,314 356,272 -18,-137 -171,-329 39,-354l156 297c70,-22 100,-32 144,-27l1 89c-32,-8 -61,-26 -99,-21 -106,13 -50,18 -77,53l37 17c35,12 -8,-11 25,5 -7,268 92,275 89,518l152 -21c23,-68 31,-95 92,-131 1,119 -72,158 -178,180l55 92c-125,-5 -87,6 -116,32 54,18 127,30 151,82l-197 18c-5,3 -11,5 -16,8 -20,9 -31,5 -74,22 52,99 -9,10 85,62l201 138c-40,21 -76,0 -129,-13 32,161 45,60 96,144 35,59 -5,92 59,144 45,37 64,31 117,81l80 97c1,-3 6,9 10,14 49,26 74,20 135,46 39,17 77,41 114,61 113,62 111,112 223,103 271,-20 394,145 512,171l-45 -174c161,182 55,255 315,202 4,4 9,10 12,12 2,3 9,9 11,12l55 57c130,-18 135,1 239,-8 -4,-71 -55,-182 -82,-261l-80 -187c-7,-74 -13,-16 34,-50 -13,67 58,162 88,235 91,220 -18,209 165,205 3,-168 -181,-478 -164,-534 76,51 149,383 223,471l66 -15c22,-52 6,-58 32,-112 53,-111 122,-125 129,-289 -75,-57 -68,-28 -96,-118l-21 -69c-33,-74 -24,1 -38,-86l83 92c6,-3 13,-7 16,-9 3,-2 12,-6 16,-9 4,-2 10,-6 15,-8 4,-2 10,-6 13,-8 41,-28 21,-13 48,-43 -56,-49 -30,-18 -105,-48 -53,-22 -52,-24 -81,-49 -7,-93 16,-102 37,-175 -51,-23 -56,-34 -85,-67 -160,-184 -574,-447 -782,-596 -71,-51 -129,-41 -208,-104 -82,-65 -95,-96 -214,-50 -69,26 -171,50 -171,-53 70,34 138,42 216,-35 -66,-46 -150,-61 -222,-91 -168,-71 -497,-246 -615,-278 -188,-52 -221,-92 -338,-128 -351,-110 -194,-116 -604,-98z"/> <path class="fil0" d="M9533 5154c218,48 196,121 510,120 73,27 47,54 92,123 64,98 76,15 61,153l95 20c7,116 13,174 -71,171 -124,-5 -34,-3 -68,-30 97,-48 79,16 88,-89 -10,-5 0,-32 -70,-6l-63 36c4,-48 -12,-20 10,-65 2,-5 6,-11 9,-16l24 -26c3,-3 10,-8 14,-12l-118 -182c-44,-49 -167,-44 -247,-49 -3,4 -7,6 -8,12l-18 58c-109,-35 -90,-60 -128,34 32,15 -2,0 46,15 6,2 30,8 36,10 5,2 13,5 17,6 4,1 11,5 16,7 -61,77 -90,27 -148,-10 -11,-158 21,-100 109,-174l-172 -51c-1,244 -177,193 -166,39 75,14 7,-6 83,43l31 -61c2,-4 6,-10 8,-14l28 -62zm-446 -172c14,160 -39,174 -173,125 -12,-151 50,-156 173,-125zm-455 73c-29,-126 0,-143 119,-134 87,109 51,171 -119,134zm-292 -277c103,-77 229,-49 144,98 -100,30 -154,14 -144,-98zm-212 89c20,-51 -31,1 15,-28l129 -44c-3,25 9,112 -89,101 -53,-6 -26,-7 -56,-28zm-216 -164c115,-27 159,6 111,119l-96 38c23,-82 9,-34 25,-63 5,-8 5,0 27,-41 -70,-38 -34,-11 -67,-53zm-2709 -40c7,13 52,-12 0,71 -41,-34 -14,16 -20,-41 -10,-101 -19,21 20,-30zm1998 35c65,-46 12,-53 89,-80 103,178 -192,217 -192,35 76,11 19,4 53,21 22,11 -21,0 50,24zm469 9c-31,-170 48,-190 149,-128 19,137 -17,143 -149,128zm-239 -77l121 19c18,119 -21,200 -133,152l73 -67 -61 -104zm-683 8c-186,96 -298,-10 -142,-138 78,-1 100,13 145,39l-3 99zm-373 -141c37,77 43,84 -2,162 -106,23 -141,4 -165,-80 26,-79 64,-96 168,-82zm-504 130c-126,12 -109,17 -118,-109l120 29 -3 80zm-152 -122c11,41 18,49 20,78 3,59 4,-27 -3,37 -3,33 -63,128 -148,-6 -67,29 -32,0 -84,55l-34 -89c-15,91 10,44 -45,87 -14,-22 -50,-13 -8,-96 44,-85 105,-37 168,-11 48,-61 31,-54 134,-56zm213 74c-48,-123 -12,-203 152,-172 30,167 -11,203 -152,172zm1040 -22c1,-77 -12,-61 -65,-100 157,-109 224,253 -22,151 27,-24 10,-12 47,-35 1,-1 38,-16 40,-17zm-568 -133c60,-22 116,-14 165,22 -64,25 -118,5 -165,-22zm-846 -87c137,3 135,47 287,-1 112,-35 112,-69 201,-105 16,-1 227,85 267,170 -156,-3 -171,-80 -312,-118 -172,95 -161,110 -424,106l-20 -52zm3974 819c-101,-26 -213,-151 -242,-244 4,-50 42,-13 53,-50l-32 -105c-113,21 -144,85 -312,81 -115,-3 -201,-54 -251,-58 -84,-7 -30,-6 -76,35 273,74 240,63 547,57 -64,111 -315,54 -418,15 -404,-154 -143,-206 -448,-195 -118,4 -63,-6 -85,-25 48,-19 72,-16 127,-26 134,-24 73,-4 100,-63 -104,-53 -118,64 -326,28 -96,-17 -162,-62 -232,-97 -93,-45 -24,-8 -50,2 55,68 76,39 134,110 -131,-15 -172,-71 -243,-135 -123,-3 -152,48 -307,41 97,-36 245,-75 318,-150 -84,-28 -132,49 -240,81 -116,35 -198,-3 -305,-13l161 89c-224,0 -263,-69 -404,-140 -111,-28 -164,56 -267,51 -100,-5 -41,-10 -58,-22l352 -130c-24,-49 -26,-41 -43,-91 135,8 177,173 399,212 225,39 290,-133 450,-178 265,550 439,250 680,252 355,526 782,168 877,164 30,168 118,358 251,438 282,169 330,27 524,53l47 176c99,10 155,52 235,25 80,-27 42,-21 58,-33 -78,-70 -115,-68 -173,-159 -45,-69 -69,-158 -114,-222 -277,48 -295,107 -535,-61 -116,-81 -218,-228 -244,-422 -156,91 -258,154 -487,130 -213,-23 -279,-140 -371,-243 -423,39 -517,-21 -695,-306 -163,45 -192,131 -443,122 -178,-7 -288,-93 -400,-159 -80,-14 -519,379 -934,-211l-21 -27c-46,61 -194,447 -552,251 -70,171 -110,186 -298,229l-29 199c213,-19 205,-142 324,-232 103,10 200,80 327,18 105,-51 109,-140 228,-174 25,2 187,208 358,250 276,68 288,-20 479,-61 -19,76 -124,96 -199,116 -349,92 -439,-75 -682,-203 -119,44 -101,103 -221,146 -92,33 -190,1 -293,2 -155,234 -554,387 -521,727 143,-56 253,-111 383,-183 99,-55 313,7 451,-84l25 21c3,2 9,7 12,8l152 -15c-40,-51 12,-7 -59,-54 -2,-2 -43,-23 -44,-24 28,-28 3,-84 125,-9 194,121 500,171 721,77 244,-104 172,53 523,121l453 11c-33,-12 -43,-8 -63,-16 -47,-17 -21,-6 -51,-32l116 -20c64,47 207,144 232,190 -239,-9 -444,-60 -704,-41 -179,13 -542,124 -637,112 -158,-66 -304,-284 -485,-171 84,92 274,128 322,267 -140,153 -414,192 -527,380 112,-7 89,-38 173,-84 -7,99 -61,95 -122,171 86,-7 239,-114 322,-162 104,-60 235,-138 339,-142 125,40 372,417 555,335l111 65c4,22 69,49 89,91 70,-3 70,-5 118,-22 -28,-51 -9,-21 -47,-56 -5,-5 -35,-29 -35,-29 -4,-3 -8,-7 -12,-10 -4,-3 -9,-7 -13,-10 -4,-3 -10,-6 -14,-9l-235 -167c-64,-44 -108,-73 -181,-130 -76,-59 -122,-62 -138,-153 125,-121 384,-137 587,-167 102,-15 250,-35 349,-36 109,-1 208,33 289,-21 187,16 204,-13 359,-25 155,233 431,252 682,194l10 -161c40,-34 57,-52 139,-43 23,56 29,54 28,129l-93 63c43,303 353,277 495,437l163 8 22 -195c46,-33 62,-59 148,-48 41,130 -23,127 -65,220 39,107 141,194 238,231 45,17 29,24 110,9 102,-18 202,-32 236,-108 -5,-4 -12,-9 -16,-11 -5,-2 -11,-7 -17,-9 -31,-10 -162,17 -193,-87l154 20c-109,-94 -192,-58 -260,-165 -54,-85 -116,-160 -129,-253 -1,-10 -7,-11 -11,-16 -452,27 -376,-115 -630,-177 37,100 23,36 75,120z"/> <path class="fil0" d="M9390 3118l-1 93c-45,14 63,46 -67,3 -57,-19 -85,-48 -97,-104l165 9zm520 -278c57,-70 108,-402 252,-670 -105,48 -71,85 -163,139 -109,-15 -15,-4 -112,-49l-27 157c-76,-24 -11,-19 -99,-49l-50 211c-100,-7 -69,-32 -161,-72 -12,298 219,216 186,469 -226,0 -62,-138 -247,-250l-44 94 -180 5 6 131 -207 1c4,97 13,50 52,136 -116,9 -208,18 -292,58 14,72 0,56 62,98 28,19 67,37 102,53 -84,78 -29,22 -124,62 53,94 117,127 148,136 -14,47 -20,62 -20,122 99,84 45,60 179,137l60 41c-62,39 -70,18 -122,67 3,5 7,12 9,14l22 24c13,13 22,24 25,19l44 135c93,19 116,2 193,-22 5,4 11,10 15,13l74 73c8,-12 39,28 33,-146 -18,-465 -299,-542 -332,-633 117,9 207,128 243,177 92,124 88,151 140,302 36,-57 24,-78 10,-161 -43,-251 -121,-237 -157,-368 120,59 65,45 143,177l44 56c2,-4 11,8 16,13 52,-142 -82,-248 -119,-363 82,30 33,-1 83,71 24,35 33,38 51,83 14,36 13,67 28,103 51,124 30,52 83,75 -21,-76 4,-58 5,-129 1,-99 -69,-191 -85,-329 40,23 47,43 66,91 5,13 21,63 22,64 39,71 -6,16 59,57 -11,-75 43,-191 43,-311 0,-110 -58,-221 -6,-303l51 190z"/> <path class="fil0" d="M10120 9631c46,-129 105,-86 135,-195 23,-84 -17,-193 -3,-297 19,-145 268,-246 403,-259 -52,88 -46,40 -126,97l79 96 21 -94c90,0 46,9 109,-22l-27 -111c-103,-7 -118,16 -178,12 -66,-5 -54,-32 -117,-53 -55,-19 -96,-11 -150,-31 -115,-41 -243,-141 -320,-167 -123,-42 -196,0 -323,-1 -106,-52 -160,-144 -294,-161 -80,112 -155,232 -361,214 83,72 83,45 144,48 37,-72 127,-96 241,-80 84,118 13,157 92,270 39,-36 112,-154 224,-187 366,-109 476,527 158,570l-2 -240c-76,44 -14,-3 -50,47l-31 54c-1,4 -3,10 -4,14l-6 66c-90,-45 -16,-34 -111,-139 -25,76 53,163 108,227 -12,38 -6,20 -21,44l41 133c-135,-6 -87,-16 -181,-74l-31 123 -149 -63c-9,115 72,128 139,192 -26,91 -6,-5 -38,89l44 24c46,-48 38,-29 52,-108 120,8 7,37 195,-71 159,-92 67,-105 220,-89l-27 119 146 0z"/> <path class="fil0" d="M8408 5244l234 204c67,66 174,158 180,263 -68,52 -97,40 -257,140 -169,105 -174,43 -261,162 315,4 289,-137 399,-158 -13,84 -130,129 -196,161 33,23 -37,22 68,27 86,4 316,-98 446,-105 -62,138 -50,57 -129,110 -21,14 -39,39 -53,56l-42 63 234 2c-45,62 -48,35 -77,98 74,-5 143,-38 148,-56 2,-7 9,-7 14,-11 -23,-60 -25,-52 -38,-127 227,59 12,105 255,21 -10,45 -179,176 -22,172 5,0 12,-1 17,-2l95 -38c-46,105 -43,2 -50,141l151 -23c18,-130 -234,-308 -271,-456 155,-128 577,-86 797,-85 -47,-45 48,5 -58,-42 -16,-7 -36,-10 -53,-15 -578,-183 -468,-41 -849,-66 -83,-134 -147,-212 -292,-299 -70,-42 -267,-158 -352,-156 -45,1 -19,5 -37,18z"/> <path class="fil0" d="M6099 2658c2,0 45,8 53,10l29 170c49,-74 49,-183 73,-277 50,-191 31,-51 18,-276l-113 -30c-35,-70 -17,-65 -39,-129 -9,-25 -27,-57 -40,-92 -90,29 -48,33 -94,57 -28,14 -74,16 -110,23 -2,154 -33,108 -159,167l11 152c-88,8 -107,7 -165,56 66,61 35,10 59,67 -14,21 -8,17 -41,39 -5,3 -36,19 -46,25 -144,94 -1,177 141,197 -32,94 -34,31 -50,116 215,112 128,134 229,172 174,65 147,-58 304,-38 11,-145 1,-84 -36,-169 -39,-89 0,-46 -9,-125 -35,-22 -128,-61 -176,-85l112 -21c25,-7 -19,-12 48,-9z"/> <path class="fil0" d="M7385 5333c95,-50 589,-124 674,-80 98,50 382,296 409,413 -64,39 -578,119 -666,43l-418 -376zm382 480c202,93 121,18 247,-23 86,-28 34,1 47,9 -98,63 -151,71 -202,140 349,2 331,-128 466,-157 -48,63 -57,53 -87,129l353 -119c98,-44 119,-48 149,-127 -70,-156 -428,-484 -673,-536 -236,-50 -884,-14 -1036,115l735 568z"/> <path class="fil0" d="M10281 2621c38,-49 70,-91 87,-176l-167 -6 3 -217c-30,31 -6,-22 -38,55 -9,21 -12,46 -19,69 -15,50 -26,85 -41,135 -44,154 -54,154 -47,328 53,-24 16,-6 54,-29 0,0 34,-24 39,-26 19,-11 62,-27 90,-39 -9,73 -34,103 -64,154 -39,67 -39,46 -105,46 -89,263 -181,277 -293,770 83,-45 354,-265 576,-149 75,39 -8,-12 41,42 60,65 154,100 252,117 -28,-54 -30,-46 -57,-98l49 -87c-54,-125 -118,-112 -129,-161 -2,-9 -6,-11 -10,-16 35,-85 30,-35 81,-122l-156 -78c34,-91 35,6 54,-105 -119,-21 -149,-6 -222,56 -183,153 -267,18 -172,-60 38,-31 79,-35 133,-44 105,-18 192,-49 268,-85 -37,-50 11,-11 -37,-40 -39,-24 -52,2 -111,-55 21,-96 40,-38 78,-134 -90,-16 -80,2 -139,-44z"/> <path class="fil0" d="M9824 6219c-89,-12 -37,14 -90,-42 57,-49 69,-46 166,-56 80,-8 136,3 190,-33 -189,-88 -362,20 -446,23 -17,-143 94,-101 223,-101 115,0 176,-2 284,18 44,113 134,257 131,406l-305 35c-50,-4 -27,-3 -54,-19 -5,-3 -9,-9 -12,-19 -3,-11 -7,-15 -11,-20l310 -34 -31 -180c-3,5 -7,11 -8,15 -1,4 -5,11 -6,16 -18,81 3,-52 -4,38 0,1 3,56 3,66 -80,12 -190,27 -272,10 -64,-13 -74,-37 -65,-121zm131 403c96,54 452,-53 536,-111 -5,-136 -115,-367 -165,-490l-96 -9c-13,-145 5,-36 -30,-86 -171,-25 -220,-54 -422,-56 -135,-1 -297,26 -405,85 3,4 23,46 24,48 3,6 15,20 19,26l308 448c87,16 90,30 133,85 134,-3 95,-30 201,-45 -50,47 -75,53 -102,105z"/> <path class="fil0" d="M10643 6265l-144 -9c-19,49 52,188 58,283 -123,66 -410,80 -499,194 26,26 7,29 59,46 6,2 13,3 19,4 95,15 29,1 64,-16l46 68 465 -79c100,108 114,310 146,464l139 -15c-34,105 -47,61 25,111 11,-149 -1,-208 -39,-339 -25,-87 -77,-196 -90,-266 77,-57 148,-57 215,-90 84,-42 13,-2 58,-43 -196,-373 -395,157 -463,-241 -11,-64 -14,-56 -58,-71z"/> <path class="fil0" d="M9965 3873c79,-79 183,-36 250,9l-250 -9zm173 -118c104,-63 294,-56 383,22 -75,39 -121,-38 -191,-44 -91,-8 -92,66 -192,22zm-413 96c127,-68 139,-126 348,-122 -103,76 -244,40 -299,190 84,-3 164,-16 194,47 -203,10 -274,-30 -349,200 139,-4 198,48 304,80l-38 -118 160 10c2,-4 6,-11 7,-14 1,-2 5,-10 5,-13l10 -40c222,25 216,43 320,-103l146 -78 222 -10c19,-49 10,-51 -3,-102 -86,-14 -92,-11 -163,-57 -201,-133 -415,-42 -455,-146 -180,15 -349,163 -408,276z"/> <path class="fil0" d="M8090 2670c13,21 34,-42 7,114l-67 357c-18,69 -52,479 -42,530 62,-125 39,-133 128,-242 127,-1 -8,18 107,10 208,-15 22,-75 293,34 -6,-83 -8,-106 -67,-145 -184,-123 -259,5 -381,22 18,-544 128,-106 54,-855 -12,7 -115,114 -124,125 -154,174 -121,385 -125,608 -118,-28 -252,-241 -365,16 73,39 137,13 217,121 69,92 29,166 42,282l78 0c-48,-290 -18,-346 -164,-396 -107,-36 -68,20 -98,-52 106,-63 197,-8 248,59 58,77 48,136 57,301l201 -889z"/> <path class="fil0" d="M5990 1787c76,-5 127,-20 178,-20l2 151c-104,-5 -33,-67 -175,-14 37,27 -26,22 88,36 13,76 130,216 187,282 65,-87 -21,-54 82,-164 72,-76 35,-266 -3,-298 -34,-29 -66,-22 -115,-37l-98 -41c-18,2 -37,4 -56,6 -4,18 -13,34 -28,47 -2,2 -5,5 -7,7 -9,10 -21,19 -34,24 -5,3 -9,5 -14,7 -2,1 -5,3 -7,4l0 9z"/> <path class="fil0" d="M5073 5129c-58,24 -61,43 -84,53 -32,14 -369,38 -451,276l238 -73c-10,148 -265,414 -126,679 19,-17 14,-1 32,-33 65,-114 -24,-228 201,-549 200,12 239,163 433,185 6,-56 33,-74 39,-156 -98,-74 -201,-135 -310,-223l29 -158z"/> <path class="fil0" d="M11343 4090c41,-80 15,-131 83,-203 -23,-28 -29,2 -26,-107 -289,175 -327,702 -345,659 -1,-4 -9,9 -13,13l-34 -39c-147,-215 -281,-139 -321,-35 202,112 280,160 241,471 64,-26 88,-25 125,-79 120,-175 47,-134 122,-170 -56,-57 -19,5 -38,-66 78,-49 46,28 25,-89 87,-51 66,8 38,-90l128 23c-25,-31 -15,-17 -44,-40 -4,-3 -10,-7 -14,-10 -4,-3 -11,-9 -14,-11 -3,-3 -11,-5 -13,-13 -2,-8 -8,-9 -13,-14 96,-50 109,26 161,24l-119 -80c96,-88 45,-15 140,-20l-108 -80 36 -42z"/> <path class="fil0" d="M6412 5177c-39,-72 -182,-150 -260,-192 -98,-53 -244,-72 -331,-8 17,14 15,16 44,32 5,3 39,16 46,20 74,33 144,62 194,121l-397 335c-47,30 -51,16 -80,29 -61,27 -35,2 -50,64 56,38 -55,19 70,31 102,10 737,-400 763,-431z"/> <path class="fil0" d="M11317 7507c29,11 68,3 101,3 -20,52 -6,58 3,83l158 -33c2,-257 -11,-318 -69,-532l-98 -195c-63,-83 -101,-76 -144,-174l-285 79 122 490c20,92 11,100 55,154 120,-161 -8,-292 -1,-383 43,-104 45,34 43,-134 -6,4 -35,24 -41,28 -27,14 -7,6 -41,10l-1 -68 229 -23c52,67 211,522 172,643 -45,18 58,26 -72,11l-188 -42c9,34 -11,59 57,84z"/> <path class="fil0" d="M7379 9357c-62,-231 -120,-154 -154,-279 103,-8 97,76 196,232 -4,-109 -20,-141 -70,-214 -58,-84 -56,-104 -149,-148 -96,52 -143,89 -192,240 -36,109 -54,237 -57,373 96,2 99,17 181,12 30,-234 -7,-93 -15,-195 -7,-86 1,-14 25,-46l126 174c5,-117 -15,-52 47,-106l-31 -120c91,40 24,13 94,77z"/> <path class="fil0" d="M7920 3889c63,263 248,401 481,380 117,-11 139,-55 220,-68 81,188 145,337 424,322 169,-9 410,-142 403,-326 -123,52 -147,308 -489,259 -89,-13 -175,-79 -229,-143 -82,-98 -77,-132 -81,-271 -137,31 -39,77 -149,144 -77,47 -525,82 -497,-302l-83 4z"/> <path class="fil0" d="M10707 5531c-163,0 -171,-97 -333,-109 81,76 132,58 222,137l25 26c196,7 201,-27 212,182 125,96 336,250 481,118 -58,-27 -62,-28 -109,-69 -41,-35 -49,-37 -87,-66l-404 -267c-64,-57 -122,-101 -227,-98l219 145z"/> <path class="fil0" d="M7762 5483c-80,-81 -87,-29 -141,-111 43,-25 352,-41 417,-11 45,21 192,124 206,214 -370,110 -353,38 -481,-93zm-277 -138c40,58 -19,4 53,55 145,102 178,132 307,294l534 -70c-47,-95 -227,-256 -332,-314 -94,-52 -439,12 -562,36z"/> <path class="fil0" d="M6212 5658c300,2 190,-62 338,-117 -34,71 -71,65 -104,143 257,-3 199,-101 327,-148 -85,158 -76,51 -137,183 119,-7 184,-25 260,-120 -46,-70 -124,-120 -204,-167 -104,12 -432,175 -479,225z"/> <path class="fil0" d="M5340 5245c89,-24 156,-161 261,-202 99,-39 239,60 284,112 -20,42 -203,173 -262,201l-225 -95c41,91 126,161 250,183 47,-50 104,-90 168,-141 55,-43 50,-29 111,-67l83 -80 -90 -73c-79,-46 -186,-111 -293,-103 -83,6 -120,73 -168,119 -70,66 -102,48 -117,148z"/> <path class="fil0" d="M4638 9680l1 -5c1,-2 2,-4 3,-6 3,-5 5,-9 7,-14 1,-2 2,-4 3,-6 -15,49 -7,29 -14,31zm110 -335l0 -2 0 -15c5,-11 7,-23 7,-36 2,-6 4,-11 5,-18 1,-2 2,-4 3,-6 2,-3 3,-5 4,-8 3,-2 5,-5 7,-8 9,-8 16,-17 21,-28 4,-4 9,-9 13,-13l-61 133z"/> <path class="fil0" d="M5251 5244c33,-81 68,-71 128,-136 97,-105 149,-182 310,-169 111,9 75,-7 148,-41 -198,-26 -293,-8 -426,88 -81,59 -223,152 -252,259 56,63 126,107 179,154 63,56 87,92 204,116 -51,-112 -228,-162 -292,-269z"/> <path class="fil0" d="M9621 4530c-9,-27 -10,-47 -19,-72 -13,-33 -17,-27 -28,-42 -6,125 6,217 60,303 12,19 166,153 177,158 159,76 433,-4 525,-100 -97,-59 -116,43 -226,62 -86,15 -205,-1 -266,-39 -94,-58 -186,-157 -222,-270z"/> <path class="fil0" d="M4845 9568c-58,-134 85,-262 160,-320l-58 -52c-139,76 -198,278 -192,459 93,-28 110,-59 211,-91 -2,-104 25,-152 46,-228 -198,33 -64,129 -166,233z"/> <path class="fil0" d="M12529 4328c-8,11 -13,28 -24,58l6 0 19 -57z"/> <path class="fil0" d="M4600 6156c-28,-144 -75,-208 -39,-401 19,-102 106,-224 102,-301 -85,49 -93,43 -164,104 -18,266 12,442 16,666l47 -44c20,-16 19,-13 38,-23z"/> <path class="fil0" d="M8639 8033l30 51c2,4 5,10 6,14l20 95c116,56 77,118 256,115 3,-64 -17,-113 -26,-193 -105,-52 -151,-120 -287,-83z"/> <path class="fil0" d="M9043 5554c31,42 19,26 47,61l390 -23c-34,-38 -8,-29 -66,-56l-485 -143 114 161z"/> <path class="fil0" d="M10362 6915c55,55 102,40 175,80 98,54 54,52 184,57 -25,85 -8,89 76,107 -3,-108 -31,-232 -109,-295l-326 51z"/> <path class="fil0" d="M5979 3288c-55,114 -58,-4 -108,111 64,38 56,15 115,37 103,39 0,35 104,43l11 -350c-85,20 -173,37 -212,115 30,26 4,10 47,32 3,1 37,10 44,13z"/> <path class="fil0" d="M5444 11154c260,33 616,-51 913,-65 160,-8 215,40 294,-21 -5,-4 -11,-9 -16,-11l-55 -16c-154,-29 -128,-2 -207,19 -108,30 -646,32 -816,48 -94,9 -84,19 -114,45z"/> <path class="fil0" d="M6506 9594l-178 -36c-75,80 -169,170 -14,228 70,-39 13,19 67,-75 23,26 7,2 28,45 46,94 -9,57 81,67l16 -229z"/> <path class="fil0" d="M12569 4205l-8 0c2,3 4,5 6,7l2 -8z"/> <path class="fil0" d="M8995 8911c56,-41 63,22 61,-58 -56,45 70,3 -33,13 -24,2 -34,-13 -125,22 -17,218 -98,137 -27,377 20,-57 -4,-54 39,-115l87 155c-41,-160 -78,-174 -74,-406 46,53 7,-43 42,74 16,52 -4,92 51,188 26,45 40,78 64,117 39,66 13,52 96,51 -28,-41 -165,-100 -182,-418z"/> <path class="fil0" d="M11866 3977c9,18 23,32 40,41l0 -8 -1 -2c-3,-5 -5,-9 -7,-14 -5,-8 -9,-17 -11,-27 -6,3 -13,6 -21,11zm505 57c71,0 88,-9 111,-76l-12 0c-14,27 -41,46 -73,49 -6,7 -12,14 -20,19 -2,3 -4,5 -6,7z"/> <path class="fil0" d="M8637 8569l190 52 -19 -142c-128,-53 -280,-48 -368,32 49,35 106,42 197,58z"/> <path class="fil0" d="M6546 4876c82,53 147,134 263,112 68,-13 309,-56 347,-75 -230,-69 -398,-16 -465,-18 -66,-2 -89,-18 -145,-19z"/> <path class="fil0" d="M6427 1786c16,-123 68,-220 58,-345l-60 111c-95,-21 -53,-44 -145,-34 -15,164 12,161 80,215l51 43c2,-5 10,8 16,11z"/> <path class="fil0" d="M7072 9845c3,-97 -17,-117 27,-200 -114,-7 -76,-28 -196,-29 32,168 -11,119 -1,246l170 -16z"/> <path class="fil0" d="M5559 3857c-47,89 186,218 315,79 51,-54 80,-100 116,-172 67,-135 52,-161 11,-204 -31,57 -32,133 -68,211 -87,189 -236,228 -373,86z"/> <path class="fil0" d="M7903 5559l232 -21c-15,-55 -56,-93 -115,-115 -70,-26 -176,-14 -252,-14l69 90c26,23 42,34 66,60z"/> <path class="fil0" d="M6626 9845c155,18 255,51 169,-124 -32,-65 11,-24 -31,-61 -67,-59 -132,0 -133,0l-5 184z"/> <path class="fil0" d="M5626 5272c51,-34 7,-2 42,-31 1,-1 29,-29 33,-32 26,-22 45,-31 76,-54 -13,-19 -15,-39 -69,-58 -63,-22 -54,-12 -112,-14 -118,143 -104,36 -107,163 49,24 62,28 136,26z"/> <path class="fil0" d="M5155 9526l9 -245c-129,34 -157,159 -187,280l178 -35z"/> <path class="fil0" d="M5581 2288c20,-56 38,-65 77,-111 -51,-27 48,17 -22,-7l-37 -15c0,-73 11,-99 -27,-149l-66 444c41,-15 74,-26 104,-44 73,-43 41,-14 55,-79l-84 -38z"/> <path class="fil0" d="M11635 5629c-1,-3 -6,-6 -7,-13 -1,-7 -5,-8 -8,-12 -83,33 -57,-3 -67,102 25,-19 44,-24 71,-40 8,58 -6,31 29,57 -58,80 -41,49 -46,111 -5,-6 -11,-14 -15,-18 -3,-4 -9,-12 -13,-17 -58,-65 33,-21 -28,-29 -27,-3 -88,63 12,132l61 33 44 -100c-1,-8 -9,-9 -14,-13 38,-101 43,-73 -18,-193z"/> <path class="fil0" d="M4836 5858c69,-33 47,-33 55,-129 21,24 12,12 31,45 1,1 8,22 16,36 68,-78 47,-141 51,-260 -94,43 -164,197 -152,307z"/> <path class="fil0" d="M11931 4110l0 0 0 -1 0 0zm326 43c36,-5 67,-12 90,-21 -15,-24 2,-38 -4,-45 -13,21 -35,36 -60,40 -7,9 -15,17 -25,23l-1 3z"/> <path class="fil0" d="M11173 5533c9,-45 12,-33 24,-63l42 -158c14,-86 57,-139 10,-199 -36,237 -3,132 -164,222l88 198z"/> <path class="fil0" d="M10732 5990c-78,-5 -95,-7 -160,-31 -107,-41 -81,-18 -105,-13l287 155 35 -88 103 -2c-99,-16 -22,13 -81,-47 -24,-24 -37,-41 -58,-66 -11,17 -4,17 -9,46l-13 47z"/> <path class="fil0" d="M11906 4897c2,-1 10,-3 12,-4 18,-6 -7,7 33,-5l-8 -168c-26,96 -21,51 -61,116 -42,68 -12,61 -41,134 -39,98 -39,-1 -25,143 11,113 -19,91 31,155 -4,-392 81,-94 35,-358l26 -13z"/> <path class="fil0" d="M8436 7422c100,-107 19,26 39,-50 16,-60 -9,35 -3,-44 7,-101 -5,0 34,-86l-60 -80c-14,40 -14,73 -28,116 -38,111 -104,130 31,275l-12 -131z"/> <path class="fil0" d="M12172 4288l4 0 0 -11c-1,4 -2,8 -4,11zm-237 -71c-7,4 -16,12 -36,27 34,45 -35,19 36,40l0 -67z"/> <path class="fil0" d="M7646 3802c301,-84 205,-72 478,31 0,-155 -312,-127 -370,-104 -6,2 -57,30 -59,31 -39,26 -32,25 -49,43z"/> <path class="fil0" d="M10092 6195c-39,-40 -140,-44 -209,4 27,69 -58,75 237,70 -17,-74 18,-27 -28,-74z"/> <path class="fil0" d="M9424 9784c-2,-167 -92,-164 -87,-364 -43,27 -50,-46 -27,115 19,131 -22,134 34,190l80 60z"/> <path class="fil0" d="M11510 6276c-24,-67 -180,-233 -297,-264 30,81 -4,45 52,85 56,40 149,47 113,145l132 34z"/> <path class="fil0" d="M8538 7004c-1,-130 32,-90 27,-143 -35,-20 70,-69 -111,8 -67,29 -52,20 -139,21 24,52 9,38 64,78 0,0 -4,-7 28,-29 3,-2 34,-11 38,-20 4,-11 15,-7 18,-8l76 92z"/> <path class="fil0" d="M6689 11067c30,28 -40,20 78,42 64,12 220,13 276,-19 -49,-35 -301,-53 -354,-23z"/> <path class="fil0" d="M5003 5577l31 171c15,-2 82,-6 89,-8l65 -58c-29,-17 -73,-38 -98,-55 -45,-31 -14,-26 -86,-49z"/> <path class="fil0" d="M5238 4142c127,34 232,-72 250,-188 -39,31 -50,27 -62,94 -31,11 -75,20 -103,32l-79 -5c-2,-2 -8,-5 -9,-12 -1,-6 -6,-7 -9,-11 -22,44 -8,59 12,91z"/> <path class="fil0" d="M7151 10074c127,-3 77,9 112,-58l23 -61c-129,-109 -114,5 -135,118z"/> <path class="fil0" d="M11463 5114c228,-18 219,43 248,35 55,-17 11,12 26,-67l-338 8 3 135 62 -111z"/> <path class="fil0" d="M5436 3056c63,-42 5,20 61,-54 31,-40 57,-86 51,-148l-95 -3 -17 205z"/> <path class="fil0" d="M6793 5740c54,2 86,7 141,-7l75 -44c-16,-21 31,-27 -55,-49 -53,-13 -74,-6 -161,101z"/> <path class="fil0" d="M11324 8325c2,-93 -22,-167 -59,-238 -60,35 -46,24 -69,92 191,133 9,5 128,147z"/> <path class="fil0" d="M10222 4622c50,53 149,24 94,-89 -86,-41 -130,10 -94,89z"/> <polygon class="fil0" points="10519,4604 10398,4605 10421,4719 10518,4707 "/> <path class="fil0" d="M10866 8804c17,66 22,80 50,146l52 107c2,-4 7,10 11,15 -4,-68 -16,-114 -28,-183 -15,-84 -3,-79 -86,-85z"/> <path class="fil0" d="M10846 5891c21,32 -26,6 45,61 187,145 202,48 203,48l-247 -109z"/> <path class="fil0" d="M9469 9288c5,-38 0,-76 -6,-116l-69 135 -64 -4c-2,0 -10,7 -11,3 -1,-4 -7,3 -10,5l114 72 47 -96z"/> <path class="fil0" d="M7190 3599c5,-6 15,-34 16,-38 8,-34 8,1 -4,-33 -78,28 -82,21 -104,93 61,54 55,55 140,35l-48 -57z"/> <path class="fil0" d="M8508 3884c27,133 117,106 148,12 -71,-39 -78,-41 -148,-12z"/> <path class="fil0" d="M10917 6408c-26,-52 25,-19 -58,-71 -24,-15 -49,-18 -80,-26l4 117 134 -19z"/> <path class="fil0" d="M10354 9285c6,-156 58,-38 47,-216 -90,43 -125,138 -47,216z"/> <path class="fil0" d="M10420 8999l57 144c1,-3 6,10 10,15 98,-73 45,-163 -67,-160z"/> <path class="fil0" d="M11292 3158c10,40 15,36 44,0l-44 0zm93 0c64,45 17,17 30,0l-30 0zm88 0c-4,3 -4,5 19,4 44,-3 15,19 16,-4l-36 0z"/> <path class="fil0" d="M10386 4501c113,13 137,5 98,-94 -92,-5 -102,2 -98,94z"/> <path class="fil0" d="M5595 3592c-21,31 -12,35 -22,87 127,-21 93,8 108,-124 -72,9 -47,-21 -86,37z"/> <path class="fil0" d="M10930 6044c30,32 -7,7 49,44l130 67 2 -89 -182 -22z"/> <path class="fil0" d="M8753 3798c87,-13 11,13 50,-44 -12,-10 34,-47 -70,-33 -73,10 -27,7 -48,55 31,18 -41,37 68,21z"/> <path class="fil0" d="M8876 4030c14,-86 3,-88 -67,-109 -21,28 -21,29 -32,89l100 20z"/> <path class="fil0" d="M6899 3637c234,7 -6,-237 0,0z"/> <path class="fil0" d="M5519 3482c80,-9 85,-21 78,-120 -74,6 -80,10 -78,120z"/> <path class="fil0" d="M12099 4399c3,0 7,0 10,0l-3 -4c-2,1 -5,3 -8,4z"/> <path class="fil0" d="M10514 9290c51,-23 66,9 64,-65 -2,-73 -44,-68 -48,-71 -34,68 -28,34 -16,136z"/> <path class="fil0" d="M11807 4720c-42,-9 19,-13 -73,-27 27,97 38,37 48,143 2,-4 3,-10 4,-11 1,-2 4,-9 5,-12 49,-81 46,-21 72,-102 -48,-1 22,27 -57,9z"/> <path class="fil0" d="M11470 7733c92,-7 110,-34 135,-112 -107,19 -71,25 -135,112z"/> <path class="fil0" d="M10780 6244c81,-13 135,60 201,90 -28,-71 -121,-133 -158,-128l-43 38z"/> <path class="fil0" d="M8984 3021c-28,-57 0,-59 -104,-12l-92 48c-3,-5 -12,8 -17,14l213 -50z"/> <path class="fil0" d="M10754 9012c-59,18 -48,-19 -45,51 3,76 43,50 54,59 15,-42 15,-2 14,-56 -1,-49 -10,-32 -23,-54z"/> <path class="fil0" d="M11916 8252c29,-41 18,-82 17,-139 -45,41 -71,90 -47,158l29 -20z"/> <path class="fil0" d="M11562 3905c198,-1 120,-9 143,-39 -46,-32 -50,-10 -86,20l-59 -54 2 73z"/> <path class="fil0" d="M10573 4333c-68,-32 -87,-18 -154,-3l104 39c86,9 32,13 50,-36z"/> <path class="fil0" d="M5444 3396c22,-92 -18,-65 -18,-65 -58,35 -51,55 -22,105 39,-17 24,29 40,-40z"/> <path class="fil0" d="M5965 4524c95,3 67,16 84,-58l-81 -16 -2 75z"/> <path class="fil0" d="M7072 3375c-67,1 1,-5 -44,21 12,11 -32,31 63,32 65,0 25,-8 53,-29 -43,-28 53,-27 -72,-24z"/> <path class="fil0" d="M9995 4244c25,-22 -37,-35 60,-31l-94 -6 4 130c28,-30 14,-22 68,-37l-26 -41c-1,-8 -7,-10 -10,-15z"/> <path class="fil0" d="M11864 8077c51,-54 11,-21 82,-55l-16 -85c-13,13 -12,7 -29,33 0,1 -22,40 -24,44 -15,29 -23,34 -14,63z"/> <path class="fil0" d="M11563 7831c25,-13 22,-11 50,-35 45,-38 23,-10 52,-60 -108,4 -112,36 -102,96z"/> <path class="fil0" d="M11571 3299c123,23 89,-47 89,-50 -110,40 -67,-6 -129,16 22,45 -8,25 40,34z"/> <path class="fil0" d="M10619 4110c0,0 8,-54 -132,-7 38,36 -5,29 67,31 38,1 51,-17 65,-24z"/> <path class="fil0" d="M11581 7136c45,73 13,62 84,111 -11,-103 3,-99 -84,-111z"/> <path class="fil0" d="M10799 8880c-28,18 -55,-7 -12,62 37,59 4,8 56,17 -26,-142 11,-29 -44,-80z"/> <path class="fil0" d="M10554 9403c43,-23 37,-58 37,-112 -8,8 -44,39 -50,54 -34,94 6,48 12,58z"/> <path class="fil0" d="M11733 3652c98,11 62,3 78,-41l-118 10c11,58 32,29 40,30z"/> <path class="fil0" d="M11173 5533l47 41c58,-32 95,-55 44,-121 -22,41 7,31 -22,86l-69 -7z"/> <path class="fil0" d="M11330 8422c-35,-53 3,-30 -77,-57 6,55 -8,52 25,70 54,31 48,-11 52,-13z"/> <path class="fil0" d="M8554 3176c-14,86 14,30 34,45l13 -109c-50,39 -32,-28 -47,63z"/> <path class="fil0" d="M10490 9469c-28,14 -40,1 -55,36 -40,96 11,35 33,53l22 -89z"/> <path class="fil0" d="M12042 4586c67,-51 67,-34 0,-86 -44,52 -13,70 -13,69 0,-4 9,11 13,17z"/> <path class="fil0" d="M10950 4026c80,-13 66,-5 92,-75 -78,20 -55,7 -92,75z"/> <path class="fil0" d="M11731 7522c32,-76 21,-70 -22,-96 -34,60 -13,64 22,96z"/> <path class="fil0" d="M10020 5414l-83 26c46,81 57,68 83,-26z"/> <polygon class="fil0" points="11667,8489 11744,8444 11628,8422 "/> <path class="fil0" d="M10833 4023c100,-16 62,25 78,-64 -97,24 -47,1 -78,64z"/> <path class="fil0" d="M11731 4935c14,-22 22,21 20,-45 -2,-51 -29,-52 -62,-68l42 113z"/> <path class="fil0" d="M11687 7687c51,-29 34,10 41,-82 -21,10 -35,9 -49,32 -37,64 6,47 8,50z"/> <path class="fil0" d="M11234 5045c78,-55 60,27 72,-75 -72,9 -61,3 -72,75z"/> <path class="fil0" d="M10821 3805c45,-34 26,22 41,-68 -74,8 -38,-8 -55,24 -28,53 11,37 15,44z"/> <path class="fil0" d="M8756 3391c68,-92 22,-46 0,-85 -18,23 -18,1 -21,47 -6,67 11,26 21,39z"/> <path class="fil0" d="M8667 3333c8,-89 8,-4 -22,-40 -61,72 -27,44 0,84 26,-39 14,43 22,-45z"/> <path class="fil0" d="M5483 5608c-38,14 -84,30 -113,52 106,-3 106,24 113,-52z"/> <path class="fil0" d="M10933 3449l65 -6 -22 -69c-43,35 -28,14 -43,75z"/> <path class="fil0" d="M6598 4599c12,7 -20,45 42,14 39,-20 7,8 23,-36 -86,-48 -41,3 -65,22z"/> <path class="fil0" d="M10763 4110c67,47 37,25 78,0 -12,-10 4,-70 -78,0z"/> <path class="fil0" d="M7012 7232c0,-1 22,-24 28,-33 3,-4 7,-7 17,-30l-73 -8 28 71z"/> <path class="fil0" d="M9259 5030c-109,24 -42,-22 -64,66 66,-28 36,10 64,-66z"/> <path class="fil0" d="M11820 4292c7,-11 77,31 0,-63 -67,54 -9,50 0,63z"/> <path class="fil0" d="M10122 10534c28,13 25,20 69,12 49,-9 53,-28 58,-39l-127 26z"/> <path class="fil0" d="M7535 10756c34,-54 39,-26 0,-89 -10,18 -13,6 -16,45 -6,97 -3,7 16,44z"/> <path class="fil0" d="M10370 4228l-15 -25c-87,104 13,56 22,63 -1,-7 -4,-30 -7,-38z"/> <path class="fil0" d="M10977 3755c-37,-27 46,-38 -40,-17 -61,15 -7,-6 -28,45 79,-10 31,6 68,-29z"/> <path class="fil0" d="M7180 6733c6,-18 30,44 35,-55l-46 -5 11 60z"/> <path class="fil0" d="M12412 4164c6,-5 36,-23 36,-23l39 -35c-77,7 -69,-22 -75,58z"/> <path class="fil0" d="M10311 10467c34,17 4,39 79,0 -6,-4 -4,-15 -35,-18 -52,-4 -24,5 -43,18z"/> <path class="fil0" d="M10438 4258c70,-6 37,19 46,-52 -51,16 -36,-12 -46,52z"/> <path class="fil0" d="M11798 4024c1,-2 59,33 0,-62 -48,44 -22,18 0,62z"/> <path class="fil0" d="M11732 4133c0,0 43,37 53,10 2,-6 9,-7 13,-10 -75,-59 -39,-22 -66,0z"/> <path class="fil0" d="M8689 5018c25,-33 53,6 0,-57 -64,51 -17,35 0,57z"/> <path class="fil0" d="M8946 5074c68,-24 32,4 57,-58 -134,38 -11,5 -57,58z"/> <path class="fil0" d="M11007 3789c66,-7 38,20 50,-52 -43,17 -35,5 -50,52z"/> <path class="fil0" d="M11616 3755l52 8c2,-5 7,-6 11,-8 -92,-77 -56,-5 -63,0z"/> <path class="fil0" d="M11656 4647l-14 -66c-62,21 -25,44 14,66z"/> <path class="fil0" d="M10721 4545c63,-6 42,18 43,-44 -71,24 -32,10 -43,44z"/> <path class="fil0" d="M11640 3432l-42 -64c-40,38 11,57 42,64z"/> <path class="fil0" d="M11703 4575c56,70 -51,17 62,60 -47,-82 19,-33 -62,-60z"/> <path class="fil0" d="M11376 3263c-79,28 -9,37 0,48 12,-25 32,6 0,-48z"/> <path class="fil0" d="M11765 3532c-17,-38 1,-38 -49,-22 21,17 -19,57 49,22z"/> <path class="fil0" d="M10893 3866c46,35 1,41 59,0 -30,-23 11,-11 -36,-16 -86,-8 14,-15 -23,16z"/> <path class="fil0" d="M7735 4627c31,-49 34,68 13,-25 0,-1 -3,-10 -4,-12 -1,-2 -7,-7 -9,-11 -9,11 -79,18 0,48z"/> <path class="fil0" d="M10636 4221c128,82 33,20 58,0l-43 -11c-2,-6 -9,7 -14,11z"/> <path class="fil0" d="M7364 9950l15 -56c-101,40 -4,-23 -35,33 -49,90 -4,0 20,23z"/> <polygon class="fil0" points="10670,4098 10697,4142 10726,4091 "/> <path class="fil0" d="M11669 4488c39,27 10,36 52,0 -79,-46 -48,-2 -52,0z"/> <path class="fil0" d="M11613 3170c0,-4 0,-8 0,-12l-12 0 12 12z"/> <path class="fil0" d="M10890 3622c-97,27 -22,3 -36,46 50,-24 21,11 36,-46z"/> <path class="fil0" d="M11907 4488c115,77 32,16 53,0 -29,-10 -21,-13 -53,0z"/> <path class="fil0" d="M11826 4133c61,41 14,28 55,0 -21,-13 5,-36 -55,0z"/> <path class="fil0" d="M10979 3555l51 -12c2,-6 8,-7 12,-10 -32,-23 19,-22 -37,-9l-26 31z"/> <path class="fil0" d="M10880 3532c95,63 29,18 50,0 -31,-14 -14,-16 -50,0z"/> <path class="fil0" d="M8516 3021c-3,60 21,18 26,0 12,-40 -25,-13 -26,0z"/> <path class="fil0" d="M11908 4377c-33,-35 13,-19 -43,-19 -111,0 60,-62 -33,28l64 -2c2,-5 8,-5 12,-7z"/> <path class="fil0" d="M11626 6533c0,5 19,27 28,-5 16,-53 -27,-17 -28,5z"/> <path class="fil0" d="M11664 4106c-46,37 -6,38 0,47 2,-4 9,-10 9,-11l-9 -35z"/> <path class="fil0" d="M8435 3021c-1,29 14,28 21,0 12,-45 -21,-9 -21,0z"/> <path class="fil0" d="M7566 5844c46,31 -30,7 29,12 75,7 -52,42 19,-12 -59,-43 -22,-18 -48,0z"/> <path class="fil0" d="M8376 5066l24 -10c-2,0 -11,7 -12,3 -1,-5 -8,5 -12,7z"/> <polygon class="fil0" points="9250,8423 9211,8490 "/> <polygon class="fil0" points="9567,10296 9522,10350 "/> <path class="fil1" d="M8283 11467l-541 18c47,-53 466,-75 541,-18zm-231 -9018c15,-14 25,-33 28,-53 4,1 7,1 9,2l44 -61c123,7 66,46 101,-21l230 0c-39,19 -13,-14 -30,25 -30,66 7,33 10,42 6,-25 61,4 23,-67l335 0c-34,13 -56,36 -62,74 96,-27 12,-43 115,-42 4,0 11,2 15,2 4,0 11,1 15,1l272 21 0 32c-2,2 -3,4 -5,6 -9,7 -17,15 -23,24 -39,1 -57,13 -75,68 -6,4 -11,9 -16,14 -4,3 -7,7 -10,11 -5,4 -10,9 -15,14 -1,1 -2,2 -3,4 -12,11 -21,24 -26,40 -13,8 -25,20 -38,37l36 12c7,27 26,49 51,60l1 2c-1,2 -2,3 -3,5 -2,3 -5,5 -7,8 -2,2 -5,5 -7,7 -18,16 -30,40 -30,67l0 7c0,50 40,90 90,90 23,0 44,-9 60,-23 11,-5 21,-12 28,-21 9,-8 16,-18 21,-29l0 0c3,-2 5,-5 7,-7 3,-2 5,-5 7,-7 2,-2 5,-5 7,-7 2,-2 4,-4 6,-6 60,-8 121,-18 207,-17 -5,-25 20,-32 -24,-63 12,-21 16,-46 9,-70 34,-12 45,-32 77,-68l-18 1c9,-20 10,-42 4,-62l10 -1 8 -58c10,-5 19,-12 27,-20 1,-1 3,-3 3,-3 6,3 11,6 17,7 17,20 41,33 69,33l7 0c50,0 90,-40 90,-90 0,-5 0,-11 0,-16l22 -4c-4,-4 -7,-8 -10,-12 24,-20 36,-52 30,-85 32,2 42,1 82,-31 -2,-4 -2,-9 -3,-12 6,0 12,0 18,0 17,0 33,-5 47,-13 2,-1 4,-2 6,-3 6,-1 13,-3 18,-6 10,-1 19,-3 28,-7l15 0c27,0 51,-12 67,-30 3,-2 5,-5 7,-7 3,-3 6,-5 8,-9 37,-5 70,-16 97,-37 -10,-11 -12,-18 -11,-23 10,4 19,6 32,6l58 0c6,2 12,4 18,5l0 0c4,5 10,10 15,13 4,5 8,10 12,14l0 84c0,12 3,24 7,35 0,23 8,44 23,61 4,8 9,15 14,21 3,7 8,14 13,20l-5 48c8,-3 23,-6 45,-9 10,13 23,23 39,29 5,3 9,5 14,7 4,3 9,5 14,7 2,2 5,3 8,4 1,9 3,18 7,26l0 58c0,14 3,27 9,39 1,3 1,6 2,9 -16,12 -30,27 -45,49 21,3 51,5 87,6 3,2 7,4 11,6 0,13 3,26 9,37 1,4 2,8 3,12 -3,1 -5,2 -7,4 16,37 -11,47 17,49 1,23 10,44 26,60 -7,6 -7,14 -18,24 33,58 48,57 78,49l0 36c-33,13 -57,46 -57,84l0 29c0,17 5,33 13,47 4,10 10,19 17,27 3,7 8,14 13,20 0,14 1,25 6,38 -3,10 4,28 -7,61 25,11 40,17 53,19 5,25 21,46 42,59 -9,12 -17,29 -28,53l255 -2c8,3 17,4 26,4l79 0c11,0 21,-2 30,-5l247 -2c-11,-64 -17,-78 -75,-78 12,-23 13,-51 3,-75l69 -4c10,40 15,36 44,0l49 0c64,45 17,17 30,0l57 0c-4,3 -4,5 19,4 44,-3 15,19 16,-4l92 0 12 12c0,-4 0,-8 0,-12l147 0c30,23 1,22 54,20l0 4c0,18 5,36 16,51l0 2c-46,4 -16,16 -35,30 10,9 24,17 41,24 2,12 7,24 13,35 1,14 5,28 13,41 2,5 4,9 7,13 -54,4 -95,7 -117,11 -98,16 -42,8 -75,32l98 24c34,1 67,-6 97,-8l16 0c1,3 2,6 3,9l0 36c0,22 8,44 23,60 2,4 4,7 6,10 1,10 3,20 7,29 0,11 2,22 6,33 -3,2 -6,5 -10,7 3,2 7,5 11,7l0 20c-10,6 -19,15 -26,25 -6,4 -10,9 -16,14 -9,4 -17,10 -24,17 -85,14 -63,54 -66,66 7,-2 18,-3 30,-4 -4,10 -6,20 -6,32l0 43c0,6 1,12 2,18 -7,8 -13,18 -17,30 -45,-37 -44,-61 -60,19 32,-1 65,-1 99,-1 4,6 9,11 14,16 1,3 3,6 5,9 4,10 9,18 16,26 0,4 1,8 2,11 -6,3 -13,6 -21,11 9,18 23,32 40,41l0 6c0,14 3,27 9,39 1,7 4,15 7,21 2,9 5,18 9,25l0 0 0 0c3,6 7,11 11,15 1,11 4,21 9,30 -1,2 -2,4 -3,6 -8,14 -13,30 -13,47l0 7c-7,4 -16,12 -36,27 34,45 -35,19 36,40l0 26c0,27 12,51 30,67 16,18 40,30 67,30l29 0c14,0 27,-3 38,-8 3,0 7,0 10,0l-3 -4c8,-5 15,-11 21,-18 12,-11 22,-25 26,-42 10,-13 16,-29 18,-47l0 -1 4 0 0 -11c2,-6 3,-11 3,-17 2,-3 4,-7 6,-10 3,-4 7,-8 9,-12 7,-5 14,-10 19,-16 12,-11 21,-24 26,-40 8,-8 14,-17 18,-27 36,-5 67,-12 90,-21 -15,-24 2,-38 -4,-45 6,-9 10,-20 12,-31 2,-4 3,-8 5,-12 4,-4 7,-7 10,-11 71,0 88,-9 111,-76l-12 0c1,-3 2,-5 3,-8 3,-4 5,-9 7,-14 2,-3 3,-5 4,-8 3,-3 5,-5 7,-8 7,-6 13,-14 18,-23 13,-1 25,-3 37,-4 53,-7 88,-5 124,-5l-103 316 -8 0c2,3 4,5 6,7l-37 115c-8,11 -13,28 -24,58l6 0 -24 75c-14,4 -26,8 -36,13 32,32 -7,44 17,47l-18 56c-17,1 -6,-1 -6,12 -2,6 -4,12 -5,18l0 0c-11,12 -18,26 -21,42 -3,7 -6,14 -7,21l0 0c-7,7 -12,16 -16,25l-22 0 -45 172c-10,10 -18,23 -22,37 -4,5 -7,10 -9,15 -5,6 -10,12 -14,20 -4,7 -8,14 -10,22 -3,5 -5,9 -7,14 -8,14 -13,30 -13,47l0 30 -108 322c-4,7 -8,14 -10,22 -6,9 -11,18 -14,29 -5,6 -9,13 -12,21 -3,5 -5,9 -7,14 -6,9 -9,19 -12,30 -1,2 -2,4 -3,6 -8,14 -13,30 -13,47l0 15c-5,11 -7,23 -7,35l0 14 -10 29 5 0c-2,7 -2,14 -2,21l0 27 19 -19c-9,9 -16,19 -20,31 -4,7 -7,14 -10,21 -7,4 -14,9 -21,14 13,8 13,13 17,17l0 2c-5,11 -7,23 -7,35l0 51c-44,13 25,-23 -35,47l23 0 -6 17c-7,23 -5,46 4,66 -8,3 -14,6 -19,9 19,15 21,22 31,27 -3,8 -5,17 -6,27 -7,10 -11,22 -13,34 -4,6 -8,13 -10,21 -29,6 -51,14 -65,24 29,22 -11,20 37,30 -1,1 -4,8 -4,8 -9,8 -16,18 -21,28 -2,2 -4,3 -5,5 -13,-3 -22,-6 -29,-10l-18 102 4 0c-1,3 -3,6 -4,9 -7,12 -12,26 -13,41l-4 0 -48 149c52,5 102,12 151,18 3,8 7,14 12,22 2,8 5,15 10,22 6,15 13,24 24,35 1,3 3,6 5,8 4,11 11,21 19,30 1,4 3,8 5,12 2,11 6,21 12,30 4,10 9,19 17,27l0 0c4,20 14,37 28,50 0,0 4,8 5,9 2,5 4,10 7,14 2,6 5,12 9,18 1,7 3,14 6,20 0,11 2,22 6,32 2,21 5,41 9,62l0 6c0,12 2,24 7,35l0 22c0,12 2,24 7,35l0 15c0,12 2,24 7,35l0 8c0,13 3,25 7,36 1,10 3,19 7,28l0 8c0,12 2,24 7,35l0 454c0,82 10,162 29,238l0 19c0,82 10,162 29,238l0 133c0,104 16,205 46,300 -20,63 -34,129 -41,198 -17,81 -69,153 -124,219 -70,84 -70,115 -118,204l-179 8c66,45 79,9 192,60l74 33c244,798 -553,1373 -887,1376 -125,14 -264,-15 -399,-10 -3,5 -6,12 -7,14 -1,2 -5,10 -6,13 -1,2 -4,9 -5,11 -41,56 -212,29 -226,35 -86,36 107,64 -422,73 -15,34 -8,-5 -2,24 0,1 4,8 4,9 0,1 5,13 5,10 0,-3 4,7 6,11 -178,58 -638,2 -865,26 71,-11 212,0 298,0 115,0 225,-17 299,30 -81,63 -181,45 -321,46l-37 66 -163 4c-2,4 -4,10 -6,12l-27 40c-2,-4 -8,10 -12,16l-284 4c19,3 50,3 62,5 77,14 34,2 74,30 -44,59 -6,16 -75,43 -172,68 -170,96 -302,212 -11,10 -28,24 -36,31l-61 58c-46,17 -218,-32 -318,37l242 19c-115,75 -1087,18 -1276,42l-78 25c191,1 1230,-19 1314,21 -69,50 -256,26 -350,24 -233,-5 -924,44 -1040,-30 -117,-75 -165,24 -318,-58 -107,-57 -29,-16 -136,-44 -156,-41 61,-44 -216,-75l-22 -62 -199 135c-254,100 -253,165 -466,170 -727,18 -568,-76 -828,-114 -732,-109 -491,-246 -433,-542 21,-106 4,-280 6,-414l-57 0 0 0c32,-5 60,-28 71,-60 6,-17 12,-32 12,-50l0 -71c0,-14 -3,-27 -9,-39 -1,-7 -4,-15 -7,-21 -1,-6 -3,-12 -5,-18l0 -8c0,-12 -3,-25 -7,-36 -1,-11 -4,-22 -9,-32 -1,-6 -3,-13 -6,-18 -1,-10 -3,-20 -7,-29 -1,-10 -3,-20 -7,-29 -1,-14 -5,-28 -13,-40l-1 -2 0 -8c0,-12 -2,-24 -7,-35l0 -22c0,-12 -2,-24 -7,-35l0 -2 33 -5c0,-19 -3,-38 -7,-57 2,-7 3,-14 3,-22 5,-11 7,-23 7,-35l0 -36c3,-6 5,-13 6,-20 7,-11 12,-23 14,-36 7,-10 11,-21 14,-33 1,-2 2,-4 3,-6 3,-5 5,-9 7,-14 6,-9 10,-19 12,-30 3,-7 6,-14 7,-21 2,-5 4,-10 6,-16 7,-2 -1,17 14,-31 4,-7 7,-16 9,-24 1,-2 2,-4 3,-6 3,-5 5,-9 7,-14 3,-5 5,-9 7,-14 8,-12 12,-26 13,-40 3,-6 4,-12 6,-18 3,-7 6,-14 7,-21 6,-12 9,-26 9,-39 4,-9 6,-18 7,-28 4,-9 6,-18 7,-29l1 -3c6,-9 10,-19 12,-30 5,-11 9,-24 9,-37l63 -135c18,-16 30,-40 30,-67 0,-49 -39,-88 -87,-90 3,-5 6,-11 11,-17 -127,4 -100,41 -239,-10 1,9 3,18 5,26 -7,-6 -12,-13 -20,-18 -5,-7 -11,-13 -17,-18 -4,-5 -9,-10 -14,-14 -3,-4 -7,-8 -10,-11 -4,-5 -10,-10 -15,-13 -4,-6 -9,-10 -14,-16 -3,-7 -7,-13 -12,-19 4,-9 6,-18 7,-27 5,-11 7,-23 7,-36l0 -8c5,-11 7,-23 7,-35l0 -15c5,-11 7,-23 7,-35l1 -17c6,-9 10,-19 12,-30 1,-2 2,-4 3,-6 9,-14 13,-30 13,-47l0 -130 8 0c-6,-5 19,-46 -12,-32 -1,-3 -2,-5 -3,-8l0 -279c5,-11 7,-23 7,-35l0 -22c5,-11 7,-23 7,-35l0 -86c3,-6 5,-13 6,-20 7,-10 11,-21 14,-33 1,-2 2,-4 3,-6 2,-3 3,-5 4,-8 9,-9 16,-17 22,-29 11,-10 19,-21 24,-34 8,-14 13,-30 13,-47l0 -193c0,-12 -3,-24 -7,-35l0 -15c0,-14 -3,-27 -9,-39 -2,-11 -6,-21 -12,-30l-1 -3c-1,-10 -3,-19 -7,-28 0,-14 -3,-27 -9,-39 -2,-12 -7,-23 -14,-33 -1,-7 -3,-14 -6,-21 -1,-10 -3,-20 -7,-29 -1,-15 -6,-28 -13,-40 -2,-5 -4,-10 -7,-14 -2,-5 -4,-10 -7,-14 -2,-5 -4,-10 -7,-14 -2,-5 -4,-10 -7,-14 -2,-5 -4,-10 -7,-14 -2,-5 -4,-10 -7,-14 -2,-5 -4,-10 -7,-14 -1,-2 -2,-4 -3,-6 -1,-8 -4,-15 -7,-21 -3,-16 -10,-30 -20,-42l0 0 15 15 0 -20c0,-12 -3,-24 -7,-35l0 -8c0,-12 -3,-24 -7,-35l0 -8c0,-12 -3,-24 -7,-35l0 -26c21,-37 -4,29 14,-37 3,-11 9,-42 11,-49 10,-38 14,-44 17,-58 5,-4 10,-8 14,-13 3,-2 5,-5 7,-7 30,-14 51,-45 51,-81l0 -7c0,-12 -2,-24 -7,-34 17,-16 28,-40 28,-65 0,-9 0,-17 -2,-26l14 0c-39,-95 -60,-108 -108,-105 -5,-16 -14,-31 -27,-43 -5,-11 -12,-21 -21,-29 -2,-2 -5,-5 -7,-7 -3,-3 -6,-6 -9,-10 -4,-4 -8,-8 -13,-11 -9,-12 -21,-23 -35,-29 -5,-5 -10,-10 -15,-15 -4,-8 -8,-15 -14,-21 -5,-11 -12,-21 -21,-28l0 0c-2,-12 -7,-23 -14,-33 -2,-21 -3,-32 -13,-37 0,-12 -3,-23 -7,-34 -1,-10 -3,-19 -7,-28 0,-11 -2,-22 -6,-32 1,-2 2,-5 3,-7l-5 -2c-1,-8 -3,-15 -6,-23 0,-14 -3,-27 -9,-40 -1,-4 -2,-8 -3,-12l7 0 -4 -196 -19 0 0 -55c10,-3 20,-7 30,-12 -10,-34 1,-48 -27,-57 2,-7 4,-14 4,-21 3,-6 4,-12 6,-18 3,-7 6,-14 7,-21 3,-7 6,-14 7,-21 2,-4 4,-9 5,-14 2,-2 3,-5 5,-7 10,2 22,5 36,9l57 -81c17,-30 31,-62 46,-85 26,-40 63,-97 92,-136 4,-4 8,-8 12,-11 13,-13 24,-22 32,-39 6,-6 12,-12 16,-20 30,-31 62,-61 79,-75 33,-26 50,-29 79,-52 9,-7 15,-12 20,-16 2,-1 4,-2 6,-2 8,-1 15,-4 21,-7 17,-3 33,-12 45,-24 12,-4 23,-10 33,-19 11,-5 21,-12 29,-21 2,-2 5,-5 7,-7 3,-2 5,-5 7,-7 2,-2 5,-5 7,-7 3,-2 5,-5 7,-7 3,-2 5,-5 7,-7 2,-2 5,-5 7,-7 15,-5 33,-8 57,-9 3,-158 44,-164 68,-303l-15 1 8 -23c11,2 21,3 31,5l169 -534c-28,-53 -50,-91 -41,-185 238,-177 70,-303 53,-349 -2,-41 4,-111 7,-139l1 -12c5,-2 9,-4 14,-7 28,-11 49,-36 55,-66 4,-9 7,-18 8,-28l7 -58c7,-2 -7,-3 20,-23l4 -44c-6,-5 -11,-9 -13,-12l2 -17c5,-2 9,-1 0,-1l7 -60 11 -2c-4,-4 -7,-8 -9,-11l13 -110 37 -1 11 -218 -22 1 6 -48c46,-5 -12,-1 24,-22l10 -77c24,-173 31,-20 35,-142 9,-259 77,-491 80,-758l-6 0c8,-6 15,-14 20,-22l38 -1c4,0 9,0 13,-1 2,2 4,5 5,7 2,4 4,8 7,12 2,11 6,22 12,31 -1,2 -3,5 -6,8 24,38 -3,44 37,44 3,21 12,39 27,53 -4,9 -8,27 -11,59 10,8 18,13 26,17 13,21 34,36 59,41l-9 7c-37,45 -8,4 -14,56l92 10 10 -95c2,-2 4,-4 6,-6 2,-2 5,-4 7,-6l119 -23c0,-68 -3,-31 -29,-89 88,-41 58,12 61,-77 5,-11 8,-24 8,-37l0 -32c76,-5 127,-20 178,-20l2 151c-104,-5 -33,-67 -175,-14 37,27 -26,22 88,36 13,76 130,216 187,282 65,-87 -21,-54 82,-164 72,-76 35,-266 -3,-298 -34,-29 -66,-22 -115,-37l-98 -41c-18,2 -37,4 -56,6 2,-7 2,-14 2,-22 2,-3 4,-7 6,-10 6,-1 13,-3 19,-6 10,-1 19,-3 28,-7 15,0 28,-3 41,-9 10,1 25,-2 50,-14 -32,-26 9,-21 -11,-23 7,-13 11,-28 11,-44l0 -45 0 0 0 -92c22,2 44,5 66,6 39,41 107,36 140,-12 29,-13 33,-32 35,-46 6,-12 9,-26 9,-40l0 -33c27,5 49,10 63,17l-37 489c5,4 13,9 17,12 78,63 38,61 -11,161l-49 101c32,88 16,-36 31,103 -70,40 -90,180 -96,296 20,-8 45,-18 58,-20 51,-7 11,-3 37,13 -53,65 -97,95 -129,202 42,-31 140,-156 208,-113 -86,76 -109,40 -147,137 152,-36 63,-49 227,-27 35,-24 38,-30 67,-60 93,-9 182,-5 223,17 -74,43 -15,19 -138,21 4,4 9,11 11,13l31 46c-174,12 -379,23 -452,153l157 -59c-25,53 -86,81 -134,132 105,-8 191,-83 271,-40 -57,58 -26,19 -121,41 -25,6 -43,9 -67,28 -43,34 -2,-5 -33,51 77,-5 143,-18 202,24l-325 34c-122,251 -316,577 -83,816 73,75 262,164 413,160 102,-3 222,-69 286,-133l71 -74 80 109c152,230 661,200 761,-79 -191,10 -138,214 -486,167 -148,-20 -239,-84 -297,-202 -21,-42 -17,-67 -35,-108 -124,16 -170,333 -542,240 -104,-26 -203,-99 -249,-146 -88,-91 -82,-221 -39,-334 206,-62 103,46 241,19 15,-165 -67,-60 -66,-184l179 2c-18,-164 -90,-99 -119,-203 185,-38 224,179 491,115 -38,-151 -36,-19 -120,-142 134,17 131,61 313,44 -25,-218 62,-77 307,-159 -5,-105 -82,-183 -196,-201l17 -101 -163 -61c25,-116 39,-50 72,-157l-160 14 60 -192 -115 24 23 -184c-128,66 -259,244 -410,227 -50,-245 317,-103 408,-365 -57,-51 -66,-25 -123,-67 20,-78 35,-63 41,-160l-163 27 19 -179 -180 30c7,-249 50,-215 -36,-405 3,-5 6,-9 9,-14 1,-1 7,-8 8,-8 11,-2 21,-6 30,-12 13,-5 24,-13 33,-23 5,8 10,14 17,20l0 0c1,3 3,6 5,9 2,5 4,10 7,14 1,2 2,5 3,7 -1,1 -3,3 -5,4 5,9 10,17 16,24l1 3c1,10 3,20 7,29 1,11 4,22 9,32 1,6 3,12 5,18 0,11 2,21 5,31l-19 177c21,-1 76,-8 92,-8 3,0 28,-4 53,11 2,2 4,4 6,6 4,5 9,9 15,13 10,14 19,34 22,63 3,28 -1,56 -3,84 64,6 84,19 107,30l0 6c0,14 3,27 9,39 2,11 6,21 12,30l1 3c9,31 6,65 88,120l-36 277 101 -1 -1 108 48 -1c5,40 36,73 76,78l7 16c3,-1 7,-3 11,-4 1,6 3,11 6,17 2,8 4,16 8,23 -54,116 -40,165 14,184 2,2 4,4 6,6 2,2 5,5 7,7 2,2 5,5 7,7 2,2 5,5 7,7 2,3 5,5 7,7 2,3 5,5 7,8 4,9 10,17 17,25 4,4 7,7 11,11 2,2 4,4 6,6 21,54 38,79 71,88 1,25 13,47 30,63 8,9 18,16 29,21l0 0c4,5 10,10 15,13 4,6 8,11 14,15 9,10 21,19 34,24 14,8 30,13 47,13l43 0c15,0 29,-4 41,-10 7,2 21,1 52,-3 84,-11 20,9 48,-50 -4,-4 10,-22 -7,-30 4,-10 6,-21 6,-32l0 -20 27 3 37 -111c14,-11 21,-22 31,-37 8,-8 14,-17 19,-27 19,-5 26,-17 32,-41 4,-2 8,-4 12,-6 21,-8 39,-25 48,-45 11,-12 18,-26 21,-42 2,-4 3,-8 5,-12 5,-9 10,-22 18,-39zm-3790 3210c3,-5 6,-11 9,-17l0 0c-2,6 -4,11 -2,17l-7 0zm7681 -2015l5 -5m-5259 7428c53,-30 305,-12 354,23 -55,32 -212,31 -276,19 -118,-22 -48,-13 -78,-42zm-1245 87c30,-26 19,-36 114,-45 170,-17 708,-19 816,-48 79,-22 53,-49 207,-19l55 16c4,2 10,7 16,11 -79,62 -134,14 -294,21 -298,14 -653,98 -913,65zm2091 -487c39,63 34,35 0,89 -19,-37 -22,53 -16,-44 2,-39 6,-27 16,-45zm2587 -133l127 -26c-5,10 -9,30 -58,39 -44,8 -41,1 -69,-12zm189 -67c19,-12 -8,-22 43,-18 31,3 29,13 35,18 -75,39 -44,17 -79,0zm-788 -118l45 -54m-2416 -221c21,-113 5,-227 135,-118l-23 61c-35,67 15,54 -112,58zm228 -179l-15 56c-24,-23 -69,68 -20,-23 30,-56 -66,7 35,-33zm-754 -50l5 -184c1,0 66,-59 133,0 42,37 0,-4 31,61 86,175 -14,142 -169,124zm447 0l-170 16c-10,-127 33,-77 1,-246 120,1 83,23 196,29 -45,83 -24,103 -27,200zm-582 -21c-90,-10 -35,26 -81,-67 -21,-43 -5,-19 -28,-45 -53,94 3,36 -67,75 -155,-58 -61,-148 14,-228l178 36 -16 229zm3978 -265c-22,-17 -73,43 -33,-53 15,-35 26,-23 55,-36l-22 89zm-5491 3c30,-121 58,-246 187,-280l-9 245 -178 35zm4360 -141c-5,200 85,198 87,364l-80 -60c-56,-56 -15,-59 -34,-190 -23,-160 -16,-88 27,-115zm1217 -17c-6,-10 -46,36 -12,-58 6,-15 41,-46 50,-54 -1,54 6,89 -37,112zm-1132 -20l-114 -72c3,-2 9,-9 10,-5 1,4 9,-3 11,-3l64 4 69 -135c6,40 11,78 6,116l-47 96zm1092 -93c-13,-102 -18,-68 16,-136 5,4 46,-1 48,71 2,74 -13,41 -64,65zm-5669 278c102,-104 -32,-201 166,-233 -20,76 -48,124 -46,228 -101,33 -117,63 -211,91 -6,-181 53,-383 192,-459l58 52c-75,58 -218,186 -160,320zm5509 -282c-78,-78 -43,-173 47,-216 11,178 -41,60 -47,216zm400 -273c13,22 22,6 23,54 1,54 1,14 -14,56 -11,-9 -52,17 -54,-59 -3,-71 -14,-33 45,-51zm-3375 345c-70,-64 -4,-37 -94,-77l31 120c-62,54 -42,-11 -47,106l-126 -174c-24,31 -31,-40 -25,46 8,103 46,-38 15,195 -82,5 -85,-10 -181,-12 3,-136 21,-264 57,-373 50,-151 96,-188 192,-240 93,44 92,63 149,148 50,73 66,105 70,214 -99,-156 -93,-239 -196,-232 34,125 92,48 154,279zm3042 -358c112,-3 166,87 67,160 -4,-5 -9,-19 -10,-15l-57 -144zm378 -120c56,51 18,-62 44,80 -52,-9 -20,42 -56,-17 -43,-69 -16,-45 12,-62zm-2376 1192c-89,42 -82,38 -66,172 104,-8 69,-38 109,23l-128 25c40,89 26,-16 30,76 2,42 -5,68 20,96 -90,86 -36,98 -97,182 -58,80 -297,357 -400,389l-433 -10c16,-114 50,-112 91,-208 7,2 36,18 38,18 72,-1 -36,35 36,-13 4,-2 10,-10 13,-13 3,-3 8,-10 13,-15 12,170 -96,84 -128,185 200,109 212,-419 231,-518 37,-193 138,-405 55,-597 -2,-5 -4,-10 -6,-15 -3,-5 -6,-10 -8,-14 -27,-40 -9,-12 -42,-40 3,61 12,98 1,153 -27,140 -72,73 -13,208 -78,81 -44,112 -97,195 -50,79 -35,11 -65,93 -35,94 -72,237 -150,314l-90 64c-26,34 -33,52 -65,90l68 22c-45,64 -83,57 -106,125l-77 -58c46,-36 71,-58 92,-116 -52,7 -140,14 -174,20 -64,11 -76,35 -159,4 -45,71 -5,44 -67,87 -39,-64 -8,-56 -54,-111l-26 96c-85,-32 -78,-53 -87,-112 -71,28 -57,36 -99,85l-44 -60 -40 48c-60,-33 -33,-7 -61,-61 -39,38 -21,-1 -55,75 -70,-21 -12,12 -67,-36l-34 52c-2,3 -7,10 -11,15l-89 -48 -44 77c-50,-9 -38,-5 -67,-27l-42 54c-120,-29 -87,32 -158,-33l-66 55c-66,-31 -19,1 -68,-52 -80,75 -81,0 -273,29 -109,16 -108,-23 -214,-19l-301 15c-1,0 -40,-8 -49,-9 -5,83 6,70 31,124 -97,3 -51,-10 -126,-62 -36,71 -8,45 13,125l-89 -65 9 113 -62 -61c-34,43 -32,69 -81,97 -50,-156 42,-213 82,-358 49,-176 -7,-280 54,-439 52,-136 -67,-241 -101,-346 -25,-75 -4,-121 4,-199 11,-108 -30,-135 60,-171 92,94 -6,181 116,241 14,-208 -74,-137 18,-333l45 131c21,75 9,72 66,111 12,-19 35,24 10,-75 -20,-79 -21,-3 -26,-104l131 -54c2,56 5,105 14,148 17,76 8,76 85,79 -40,-122 -52,-121 16,-229 43,-68 -20,-51 102,-49 22,167 -76,235 -23,329l44 -1c35,-61 24,-184 34,-256l126 -38c5,108 -33,179 -32,250 1,126 -5,26 28,68 69,-32 44,-57 48,-135 2,-51 13,-108 41,-152l89 -6c93,119 20,165 27,308l99 -2c16,-72 -82,-395 196,-206l12 168 -143 14c47,32 43,74 213,84l-4 -225c95,-16 311,6 278,138 -19,74 -18,-3 -34,101 100,84 -2,39 101,66 13,-46 25,-128 34,-219 63,-26 108,-31 191,-8 46,153 55,193 33,333l76 -5c47,-147 -13,-127 78,-249l251 -8c-54,123 -41,53 -161,113 11,71 -6,12 25,83 118,-1 34,-21 130,-33 84,-10 50,23 159,-2 158,-36 187,-116 256,-132 -47,232 -217,309 -254,434 142,-43 310,-318 356,-455 5,0 14,-4 16,2l62 -7c25,-193 -77,-708 2,-830 137,-2 99,48 121,157 4,18 31,81 34,100 13,92 -3,3 -14,106 53,61 185,324 256,351 -4,-119 -82,-264 -130,-376 -28,-66 -24,-129 -54,-191 -37,-77 -67,-63 -66,-198l207 -76c98,69 73,102 201,138l161 -64c153,-82 258,-220 451,-261 -53,307 -177,377 -267,533 -46,80 -31,152 -37,232 -6,77 -26,57 -37,160l-28 289zm572 -1160c16,318 154,378 182,418 -83,1 -57,15 -96,-51 -23,-39 -38,-72 -64,-117 -55,-96 -35,-136 -51,-188 -36,-117 3,-22 -42,-74 -4,232 34,246 74,406l-87 -155c-43,61 -18,58 -39,115 -71,-240 9,-158 27,-377 91,-36 101,-20 125,-22 103,-11 -22,32 33,-13 2,80 -5,17 -61,58zm1871 -108c83,6 71,1 86,85 12,69 24,115 28,183 -4,-5 -10,-18 -11,-15l-52 -107c-28,-67 -33,-80 -50,-146zm-1755 -95c-61,-4 -61,24 -144,-48 206,18 281,-102 361,-214 133,17 187,109 294,161 127,1 200,-41 323,1 77,26 206,126 320,167 54,19 95,12 150,31 63,22 51,49 117,53 60,4 75,-19 178,-12l27 111c-62,31 -19,22 -109,22l-21 94 -79 -96c80,-57 74,-9 126,-97 -135,12 -384,113 -403,259 -14,104 26,213 3,297 -30,109 -89,66 -135,195l-146 0 27 -119c-153,-16 -61,-3 -220,89 -188,108 -75,79 -195,71 -15,79 -7,60 -52,108l-44 -24c33,-94 13,2 38,-89 -67,-65 -147,-77 -139,-192l149 63 31 -123c94,58 46,68 181,74l-41 -133c14,-24 9,-7 21,-44 -55,-64 -132,-151 -108,-227 95,105 21,93 111,139l6 -66c1,-4 3,-10 4,-14l31 -54c36,-49 -26,-3 50,-47l2 240c318,-43 208,-679 -158,-570 -112,33 -185,151 -224,187 -80,-113 -9,-152 -92,-270 -114,-16 -203,8 -241,80zm-671 -198c88,-80 240,-85 368,-32l19 142 -190 -52c-91,-15 -147,-23 -197,-58zm3188 -89l115 22 -77 45 -38 -67zm-2418 67l39 -67m2003 -58c80,28 42,4 77,57 -4,2 2,44 -52,13 -32,-19 -18,-16 -25,-70zm633 -94c-25,-68 1,-117 47,-158 1,57 12,98 -17,139l-29 20zm-691 -93c23,-68 9,-57 69,-92 37,72 61,145 59,238 -119,-142 63,-14 -128,-147zm-2556 -145c136,-37 182,32 287,83 9,80 28,128 26,193 -179,2 -140,-59 -256,-115l-20 -95c-2,-5 -4,-10 -6,-14l-30 -51zm3225 44c-9,-29 -1,-34 14,-63 2,-4 24,-43 24,-44 17,-26 15,-20 29,-33l16 85c-71,34 -32,1 -82,55zm-302 -246c-9,-60 -5,-92 102,-96 -29,51 -7,22 -52,60 -29,24 -25,22 -50,35zm165 -226c-7,92 9,53 -41,82 -2,-3 -45,14 -8,-50 13,-23 28,-22 49,-32zm-258 128c64,-87 28,-93 135,-112 -25,78 -42,105 -135,112zm239 -307c44,26 54,20 22,96 -35,-32 -56,-36 -22,-96zm-3273 -4l12 131c-135,-145 -69,-164 -31,-275 15,-43 14,-76 28,-116l60 80c-39,86 -27,-15 -34,86 -6,79 20,-16 3,44 -20,75 61,-57 -39,50zm-1424 -190l-28 -71 73 8c-10,23 -14,26 -17,30 -7,9 -28,32 -28,33zm4569 -95c87,12 73,8 84,111 -72,-49 -40,-38 -84,-111zm-1219 -222l326 -51c78,63 107,187 109,295 -85,-18 -102,-21 -76,-107 -131,-4 -87,-2 -184,-57 -73,-41 -120,-26 -175,-80zm-1824 89l-76 -92c-3,0 -14,-3 -18,8 -3,9 -35,18 -38,20 -32,22 -28,28 -28,29 -55,-41 -40,-26 -64,-78 88,-2 72,7 139,-21 181,-77 76,-28 111,-8 5,52 -27,12 -27,143zm2444 -265l285 -79c43,98 81,91 144,174l98 195c59,214 71,275 69,532l-158 33c-9,-24 -23,-31 -3,-83 -33,1 -71,8 -101,-3 -68,-25 -48,-50 -57,-84l188 42c130,15 27,7 72,-11 39,-121 -119,-576 -172,-643l-229 23 1 68c34,-4 14,4 41,-10 6,-3 36,-24 41,-28 1,169 0,30 -43,134 -7,91 122,222 1,383 -44,-54 -35,-62 -55,-154l-122 -490zm-3803 -6l-11 -60 46 5c-6,100 -30,37 -35,55zm4446 -200c1,-21 44,-58 28,-5 -9,32 -28,9 -28,5zm-844 -106l-4 -117c32,8 56,12 80,26 83,52 32,19 58,71l-134 19zm-283 -171l144 9c44,15 47,7 58,71 68,398 267,-132 463,241 -45,41 26,1 -58,43 -67,33 -138,33 -215,90 12,69 65,179 90,266 38,131 50,189 39,339 -72,-49 -59,-5 -25,-111l-139 15c-32,-155 -46,-356 -146,-464l-465 79 -46 -68c-34,17 32,31 -64,16 -6,-1 -13,-2 -19,-4 -52,-16 -33,-20 -59,-46 90,-114 376,-128 499,-194 -6,-95 -77,-234 -58,-283zm-2430 -30c410,-18 253,-12 604,98 117,37 150,77 338,128 118,32 446,207 615,278 72,30 156,45 222,91 -78,77 -146,69 -216,35 0,102 102,79 171,53 119,-45 133,-15 214,50 78,63 136,53 208,104 208,149 622,412 782,596 29,33 34,45 85,67 -21,73 -44,82 -37,175 29,25 28,27 81,49 74,31 49,0 105,48 -28,30 -7,15 -48,43 -9,6 -19,11 -28,17 -4,2 -12,7 -16,9 -4,2 -11,6 -16,9l-83 -92c14,86 5,11 38,86l21 69c29,90 22,61 96,118 -7,164 -76,178 -129,289 -26,55 -10,60 -32,112l-66 15c-74,-88 -147,-420 -223,-471 -17,56 167,366 164,534 -183,4 -74,15 -165,-205 -30,-74 -101,-168 -88,-235 -48,34 -42,-24 -34,50l80 187c27,79 78,191 82,261 -104,10 -109,-10 -239,8 -22,-23 -44,-46 -67,-69 -3,-3 -8,-8 -12,-12 -260,53 -153,-20 -315,-202l45 174c-119,-27 -241,-191 -512,-171 -112,8 -110,-42 -223,-103 -37,-20 -75,-44 -114,-61 -61,-27 -86,-20 -135,-46 -3,-4 -8,-17 -10,-14l-80 -97c-53,-50 -72,-44 -117,-81 -64,-53 -24,-85 -59,-144 -51,-84 -64,17 -96,-144 54,12 89,33 129,13l-201 -138c-94,-51 -32,37 -85,-62 43,-17 55,-13 74,-22 5,-2 11,-5 16,-8l197 -18c-24,-52 -97,-65 -151,-82 30,-26 -9,-38 116,-32l-55 -92c106,-22 178,-61 178,-180 -62,36 -69,63 -92,131l-152 21c3,-243 -96,-249 -89,-518 -33,-16 10,7 -25,-5l-37 -17c27,-35 -29,-40 77,-53 38,-5 66,13 99,21l-1 -89c-44,-5 -75,5 -144,27l-156 -297c-210,25 -57,217 -39,354 -133,42 -373,185 -356,-272 3,-75 3,-99 -27,-159 -43,-89 -32,-25 -65,-128zm2711 18l43 -38c37,-6 130,57 158,128 -65,-30 -120,-103 -201,-90zm433 -232c116,30 273,197 297,264l-132 -34c36,-98 -56,-105 -113,-145 -56,-40 -22,-3 -52,-85zm-284 32l182 22 -2 89 -130 -67c-56,-37 -19,-12 -49,-44zm-1558 -89c108,-59 271,-86 405,-85 202,2 251,31 422,56 35,50 17,-59 30,86l96 9c50,123 161,353 165,490 -84,58 -440,165 -536,111 27,-51 52,-57 102,-105 -106,14 -67,41 -201,45 -43,-55 -46,-69 -133,-85l-308 -448c-4,-5 -15,-20 -19,-26 -1,-2 -21,-44 -24,-48zm1360 35l13 -47c5,-29 -2,-29 9,-46 21,25 34,42 58,66 59,60 -18,31 81,47l-103 2 -35 88 -287 -155c25,-5 -2,-28 105,13 64,25 82,26 160,31zm115 -99l247 109c0,0 -16,97 -203,-48 -70,-55 -24,-29 -45,-61zm-3281 -47c27,-18 -11,-43 48,0 -71,54 56,19 -19,12 -60,-5 17,19 -29,-12zm235 3021l-8 56c-53,24 -74,33 -80,74 -97,-5 -84,-3 -173,0 -144,-312 -421,-152 -480,-73 -120,162 -132,427 -180,641 -121,72 -163,38 -318,-9 -74,-22 -305,-48 -360,-21 -40,77 -8,99 -64,198l-128 -21c52,-168 44,-31 131,-407 -90,47 -11,5 -68,57 -23,21 -45,33 -63,45 -31,158 1,209 -175,227 -153,-164 -14,-174 13,-365 -47,-20 -90,-36 -137,-50 12,207 31,176 -78,349 -166,-2 -169,-101 -117,-232 40,-99 48,-105 -23,-176 -95,46 -49,71 -41,154 9,91 -19,162 -45,220l-202 3c13,-53 13,-163 32,-213 35,-92 100,-40 68,-177 -83,7 -81,58 -201,93 -68,20 -18,0 -80,40 30,-60 29,-48 67,-98 -4,-2 -11,-9 -13,-5l-51 -13c-6,-2 -13,-4 -19,-7l76 -109 -61 -20c35,-102 124,-290 48,-395l-26 130c-1,-5 -6,-19 -7,-15l-48 -51c-36,110 2,232 -74,340 -40,-54 -169,-365 -181,-338l-123 20c-20,103 -5,185 37,246 -92,-3 -58,2 -128,-34 -33,-167 27,-239 27,-395 0,-156 -53,-260 -26,-420 24,-143 117,-180 127,-313 9,-133 -80,-250 -22,-375 70,26 38,0 71,83 23,58 39,65 53,124 17,68 16,269 9,346l-104 39 91 92c-40,92 -143,280 -99,374 31,-45 0,5 25,-58l42 -67c33,60 17,37 23,109 11,126 11,81 45,115 18,-175 -17,-291 84,-385 145,-136 95,-180 120,-372 118,-66 229,-75 346,-132 -7,171 -6,253 30,415 42,193 4,267 13,452l98 16c20,-79 26,-94 23,-195 -4,-123 16,-106 34,-213 91,75 71,146 227,165l15 81c137,-120 79,-621 110,-862l-4 -116c-1,-3 -6,-9 -8,-13 -53,88 -28,193 -43,289 -17,103 -29,55 -57,58 -80,-309 14,-391 72,-552 37,-104 138,-384 250,-405 69,13 71,21 109,51 28,48 -61,303 41,476 65,111 61,-19 42,110 5,0 67,1 72,3 66,25 -7,-20 49,37l-65 14 234 168c58,40 69,25 114,48 33,17 250,225 306,267 88,67 360,142 383,172 94,128 46,139 220,265 5,4 22,16 27,19l28 25c-92,84 -29,122 -5,180 30,74 -29,58 44,96 59,-81 -10,-116 -29,-231l67 -44c-63,-64 -104,-46 -167,-162 -26,-48 -15,-39 -52,-77l33 -44c125,-175 -263,-146 -349,-169 -242,-64 -199,-122 -353,-208 17,-11 -39,-75 95,-7 296,151 512,140 773,-49 57,-41 143,-71 175,-113 25,-33 71,-200 74,-238 8,-102 -3,-194 -4,-290 -1,-151 59,-108 52,-266 -51,-63 -97,-127 -133,-225 -28,-76 -105,-151 -111,-156 -39,-26 -14,-13 -73,-15l23 -88 -110 24 1 -73c-90,48 -121,32 -115,-80 -27,18 -37,22 -66,38l-8 -68c-176,6 -71,44 -75,66 -54,34 -5,21 -89,21l-1 -88 -86 69c11,-79 25,-58 -3,-110l-63 96c-64,-104 -72,44 -88,-102 -37,23 -35,20 -69,46l-14 -63 -52 85 -43 -83c-14,27 -48,96 -58,115l-6 -126c-63,23 -46,26 -118,32 -116,9 -206,46 -310,88 24,-134 58,-56 98,-189 -77,22 -152,81 -185,146 -28,56 -59,212 -24,267 65,-52 21,-19 67,-83 112,212 227,330 168,592 -70,-2 -28,17 -89,-14 -108,-56 -160,-183 -239,-273 -25,-29 -78,-57 -121,-62 13,41 31,50 59,81 -18,122 -48,110 -111,177 -89,95 -155,255 -205,373l-103 207c-37,-24 -29,1 -56,-58l-79 -322c135,-87 407,-301 456,-417 -117,28 -15,63 -154,108l31 -202c-74,-95 -118,-97 -196,-245 17,-51 11,-22 20,-43 25,-51 2,-137 -12,-201 39,-44 56,-55 79,-117l-133 31 -60 138 -199 -87c-5,-2 -10,-5 -15,-7 -68,-26 -101,-30 -121,41 69,49 104,23 187,94 66,56 86,89 125,186 91,-37 37,57 72,-73 33,186 91,220 209,300 -12,91 -40,119 -41,249 -29,30 -57,68 -84,91 -56,-68 -49,-73 -19,-158l-61 6 -3 -89 -47 32c-2,2 -8,8 -12,12 -14,-135 -9,-60 -42,-98l-49 -78 -68 39c-165,-141 -138,39 -252,4l-55 -28 -38 117c-99,-43 -7,-16 -95,-51l-6 113 -119 11 -33 99c-46,-40 -67,-116 -111,-159 -8,16 -41,-5 7,104 33,76 39,64 36,144l-94 -80c1,121 24,352 -60,451 -150,-281 12,-568 153,-776 228,-337 48,-392 501,-568 -40,-29 43,-45 -168,-9 91,-75 410,-119 539,-142 158,-28 44,2 100,-46 -81,0 -184,36 -231,12 70,-37 162,-38 261,-38l274 37c-30,1 -213,-14 -220,16 -23,98 -339,40 -428,73 -51,19 -31,20 -59,56 69,-1 168,-1 234,-8 67,-8 113,-30 202,-26 301,13 231,-21 417,-48 285,-42 1011,20 1330,73 413,68 613,400 570,822 75,77 113,151 154,256l41 93c31,83 66,96 92,185 -119,-37 3,-31 -118,-44 -8,37 -12,71 -28,104 -32,67 -19,-7 -48,95 30,25 -18,25 82,34l-61 50 66 43c-145,136 -10,111 17,308 138,51 51,47 215,36 134,-8 120,39 160,129 -17,40 -13,25 -30,46 -33,43 -12,-10 -31,43 29,24 34,17 102,-9 9,101 21,73 76,129 60,61 19,14 12,42 -3,2 -8,13 -48,18l-234 32c-240,61 -96,84 -227,101 58,117 -137,130 -217,142 -12,70 -22,73 -53,123 37,63 18,-30 33,89 -52,-1 -114,53 -192,65zm-2964 -3007c-11,-110 58,-264 152,-307 -4,118 17,182 -51,260 -8,-14 -15,-35 -16,-36 -19,-33 -10,-21 -31,-45 -8,96 14,96 -55,129zm1957 -118c87,-107 108,-114 161,-101 86,22 39,28 55,49l-75 44c-55,14 -87,9 -141,7zm4760 -34c10,-104 -17,-68 67,-102 3,4 7,5 8,12 1,7 6,10 7,13 61,120 57,92 18,193 5,4 12,5 14,13l-44 100 -61 -33c-100,-69 -38,-135 -12,-132 61,8 -30,-36 28,29 4,4 10,13 13,17 4,4 10,12 15,18 5,-62 -12,-31 46,-111 -35,-26 -20,1 -29,-57 -27,17 -46,21 -71,40zm-6070 -98c-7,76 -8,49 -113,52 30,-21 76,-37 113,-52zm-480 -31c72,23 41,18 86,49 25,17 70,39 98,55l-65 58c-7,2 -74,7 -89,8l-31 -171zm1209 81c47,-50 375,-213 479,-225 80,47 158,97 204,167 -76,95 -141,113 -260,120 61,-132 52,-25 137,-183 -128,46 -70,145 -327,148 34,-78 70,-72 104,-143 -147,55 -38,119 -338,117zm-1612 498c-19,11 -18,7 -38,23l-47 44c-4,-225 -34,-400 -16,-666 71,-61 78,-55 164,-104 3,78 -83,200 -102,301 -36,193 11,257 39,401zm6573 -624l69 7c29,-56 1,-46 22,-86 51,66 13,89 -44,121l-47 -41zm-1237 -93l83 -26c-26,94 -37,107 -83,26zm-1008 -47l485 143c58,27 32,18 66,56l-390 23c-28,-35 -16,-19 -47,-61l-114 -161zm1559 -7c105,-3 163,40 227,98l404 267c39,29 47,31 87,66 47,41 50,42 109,69 -145,132 -356,-22 -481,-118 -11,-209 -16,-175 -212,-182l-25 -26c-90,-79 -141,-61 -222,-137 162,12 170,110 333,109l-219 -145zm-2080 -142c18,-13 -9,-17 37,-18 85,-2 282,114 352,156 145,87 210,164 292,299 381,25 271,-118 849,66 17,5 37,8 53,15 106,47 10,-3 58,42 -220,-1 -642,-43 -797,85 37,148 288,325 271,456l-151 23c7,-140 4,-36 50,-141l-95 38c-5,1 -12,2 -17,2 -157,4 13,-128 22,-172 -243,84 -28,38 -255,-21 13,75 15,67 38,127 -5,4 -12,4 -14,11 -5,18 -74,51 -148,56 29,-64 33,-36 77,-98l-234 -2 42 -63c14,-17 32,-42 53,-56 80,-53 68,28 129,-110 -130,7 -361,109 -446,105 -105,-5 -34,-3 -68,-27 66,-32 183,-77 196,-161 -110,22 -84,162 -399,158 86,-119 92,-57 261,-162 160,-100 189,-88 257,-140 -5,-105 -113,-197 -180,-263l-234 -204zm-1376 1c151,-129 800,-165 1036,-115 245,52 603,380 673,536 -30,79 -51,83 -149,127l-353 119c31,-76 39,-66 87,-129 -135,29 -117,159 -466,157 50,-69 104,-77 202,-140 -13,-8 38,-37 -47,-9 -126,41 -45,116 -247,23l-735 -568zm-1988 42c110,89 212,149 310,223 -6,82 -33,100 -39,156 -194,-22 -233,-173 -433,-185 -225,321 -135,435 -201,549 -19,33 -14,17 -32,33 -139,-265 116,-531 126,-679l-238 73c82,-238 419,-261 451,-276 24,-10 27,-29 84,-53l-29 158zm6130 245l-88 -198c160,-90 127,15 164,-222 47,60 4,113 -10,199l-42 158c-12,30 -15,18 -24,63zm-5548 -261c-74,2 -87,-2 -136,-26 3,-127 -11,-20 107,-163 57,2 48,-8 112,14 54,19 56,39 69,58 -30,23 -50,32 -76,54 -4,3 -33,31 -33,32 -35,30 9,-3 -42,31zm5775 -47l-3 -135 338 -8c-15,79 29,50 -26,67 -29,9 -20,-52 -248,-35l-62 111zm-2142 -194c-28,76 2,38 -64,66 22,-88 -44,-42 64,-66zm-883 36c4,-2 10,-12 12,-7 1,4 11,-3 12,-3l-24 10zm2858 -21c11,-72 0,-65 72,-75 -11,102 6,20 -72,75zm-5894 201c16,-100 47,-82 117,-148 49,-46 86,-113 168,-119 107,-8 214,57 293,103l90 73 -83 80c-61,38 -56,24 -111,67 -65,51 -122,91 -168,141 -123,-22 -209,-92 -250,-183l225 95c59,-28 242,-158 262,-201 -45,-52 -185,-151 -284,-112 -105,42 -172,179 -261,202zm480 -268c87,-64 233,-46 331,8 78,43 222,121 260,192 -27,31 -661,440 -763,431 -125,-12 -13,7 -70,-31 15,-62 -11,-37 50,-64 29,-13 32,1 80,-29l397 -335c-50,-59 -120,-87 -194,-121 -7,-3 -41,-17 -46,-20 -29,-16 -27,-17 -44,-32zm-570 267c65,107 241,157 292,269 -117,-24 -141,-60 -204,-116 -52,-47 -123,-91 -179,-154 28,-106 171,-200 252,-259 132,-96 228,-114 426,-88 -74,34 -38,51 -148,41 -161,-14 -213,64 -310,169 -61,66 -96,55 -128,136zm6630 -333c46,264 -39,-34 -35,358 -50,-64 -20,-42 -31,-155 -14,-144 -14,-45 25,-143 29,-73 0,-65 41,-134 40,-65 35,-21 61,-116l8 168c-40,13 -15,-1 -33,5 -2,1 -10,3 -12,4l-26 13zm-5334 -34c55,1 79,17 145,19 67,2 235,-51 465,18 -38,19 -279,62 -347,75 -115,22 -181,-59 -263,-112zm5142 -55c32,17 59,17 62,68 3,66 -6,23 -20,45l-42 -113zm45 -129c92,13 32,18 73,27 79,17 8,-10 57,-9 -26,81 -23,21 -72,102 -1,2 -4,10 -5,12 -1,2 -3,8 -4,11 -11,-106 -22,-46 -48,-143zm-1337 -88l122 -1 -1 104 -98 12 -23 -114zm1245 -23l14 66c-39,-22 -76,-45 -14,-66zm61 -6c81,27 15,-22 62,60 -113,-43 -5,10 -62,-60zm-1388 -43c55,113 -44,142 -94,89 -36,-79 8,-130 94,-89zm-742 -116c11,15 15,9 28,42 10,24 11,44 19,72 36,113 128,212 222,270 61,38 180,54 266,39 110,-19 129,-121 226,-62 -92,96 -366,176 -525,100 -10,-5 -165,-139 -177,-158 -53,-86 -65,-178 -60,-303zm2468 83c67,51 67,35 0,86 -4,-6 -13,-20 -13,-17 0,1 -31,-17 13,-69zm-1278 1c-1,61 20,38 -43,44 11,-34 -28,-20 43,-44zm1143 -13c32,-13 24,-10 53,0 -21,16 62,77 -53,0zm-238 0c4,-2 -27,-46 52,0 -42,36 -13,27 -52,0zm-1283 12c-4,-92 6,-99 98,-94 40,99 16,106 -98,94zm1522 -123c-4,2 -10,2 -12,7l-64 2c93,-90 -78,-28 33,-28 56,0 10,-16 43,19zm-1489 -48c67,-15 86,-28 154,3 -18,49 36,45 -50,36l-104 -39zm1401 -100c77,94 7,52 0,63 -9,-13 -67,-9 0,-63zm-1336 -23c-10,71 24,46 -46,52 10,-64 -5,-36 46,-52zm-129 -2l15 25c2,8 6,31 7,38 -10,-6 -110,41 -22,-63zm282 18c5,-3 12,-17 14,-11l43 11c-25,20 70,82 -58,0zm-641 22c3,5 9,7 10,15l26 41c-53,15 -40,8 -68,37l-4 -130 94 6c-97,-4 -35,10 -60,31zm1832 -111c60,-36 34,-13 55,0 -40,28 6,41 -55,0zm-94 0c27,-22 -9,-59 66,0 -4,3 -11,5 -13,10 -9,27 -53,-10 -53,-10zm-68 -26l9 35c-1,2 -7,7 -9,11 -6,-9 -46,-10 0,-47zm747 58c6,-80 -2,-51 75,-58l-39 35c0,0 -30,18 -36,23zm-1649 -54c82,-70 66,-10 78,0 -41,25 -11,47 -78,0zm-92 -12l56 -7 -28 51 -27 -43zm-183 5c140,-47 132,7 132,7 -14,7 -28,24 -65,24 -71,-2 -28,5 -67,-31zm-954 1051c-52,-84 -38,-19 -75,-120 254,62 178,204 630,177 4,5 10,7 11,16 14,93 75,167 129,253 68,107 152,71 260,165l-154 -20c31,104 162,77 193,87 6,2 13,7 17,9 5,2 11,7 16,11 -34,76 -134,89 -236,108 -80,14 -65,8 -110,-9 -97,-37 -199,-124 -238,-231 43,-93 106,-90 65,-220 -86,-11 -103,15 -148,48l-22 195 -163 -8c-142,-160 -452,-135 -495,-437l93 -63c1,-74 -5,-73 -28,-129 -82,-9 -99,9 -139,43l-10 161c-251,58 -527,39 -682,-194 -155,11 -172,40 -359,25 -81,54 -180,19 -289,21 -99,1 -246,21 -349,36 -203,30 -462,46 -587,167 16,91 61,94 138,153 73,57 117,86 181,130l235 167c4,3 10,6 14,9 4,3 9,7 13,10 4,3 8,7 12,10 0,0 30,24 35,29 38,36 19,5 47,56 -47,17 -48,19 -118,22 -20,-42 -85,-68 -89,-91l-111 -65c-183,82 -430,-295 -555,-335 -104,4 -235,83 -339,142 -83,48 -236,155 -322,162 62,-76 115,-72 122,-171 -85,46 -61,77 -173,84 112,-188 387,-226 527,-380 -48,-139 -238,-175 -322,-267 181,-113 327,105 485,171 95,12 458,-99 637,-112 260,-19 465,31 704,41 -25,-46 -168,-143 -232,-190l-116 20c30,26 4,15 51,32 20,7 30,3 63,16l-453 -11c-350,-68 -279,-225 -523,-121 -222,95 -527,44 -721,-77 -121,-75 -97,-19 -125,9 1,1 42,23 44,24 71,47 19,3 59,54l-152 15c-3,-1 -9,-6 -12,-8l-25 -21c-138,91 -352,29 -451,84 -131,72 -241,127 -383,183 -33,-340 366,-494 521,-727 103,-1 201,31 293,-2 120,-43 101,-102 221,-146 243,128 333,296 682,203 75,-20 180,-40 199,-116 -191,41 -203,129 -479,61 -171,-42 -333,-248 -358,-250 -119,34 -124,123 -228,174 -127,62 -224,-8 -327,-18 -119,90 -111,213 -324,232l29 -199c188,-43 228,-58 298,-229 358,196 505,-189 552,-251l21 27c414,590 854,197 934,211 111,66 222,152 400,159 251,10 279,-76 443,-122 178,285 272,345 695,306 92,103 158,220 371,243 229,24 331,-39 487,-130 26,194 128,341 244,422 241,169 259,109 535,61 45,64 69,153 114,222 58,91 95,89 173,159 -17,12 22,6 -58,33 -80,27 -136,-15 -235,-25l-47 -176c-195,-26 -242,117 -524,-53 -133,-80 -221,-270 -251,-438 -95,4 -522,362 -877,-164 -241,-2 -415,298 -680,-252 -159,46 -225,217 -450,178 -222,-38 -264,-204 -399,-212 17,49 19,42 43,91l-352 130c17,12 -43,17 58,22 103,5 156,-79 267,-51 141,71 180,140 404,140l-161 -89c107,10 189,49 305,13 108,-33 156,-109 240,-81 -74,75 -222,114 -318,150 155,8 184,-44 307,-41 71,64 112,120 243,135 -58,-72 -78,-42 -134,-110 26,-10 -43,-47 50,-2 70,34 136,80 232,97 208,36 222,-80 326,-28 -27,59 34,39 -100,63 -54,10 -78,7 -127,26 22,19 -33,29 85,25 305,-11 44,41 448,195 102,39 354,96 418,-15 -307,6 -275,17 -547,-57 47,-41 -7,-42 76,-35 50,4 136,55 251,58 168,4 199,-60 312,-81l32 105c-10,37 -48,0 -53,50 29,92 141,217 242,244zm2264 -1192c59,94 1,60 0,62 -22,-43 -48,-18 0,-62zm-887 -3c-16,89 22,48 -78,64 31,-63 -19,-40 78,-64zm-2135 50c11,-60 11,-60 32,-89 70,21 82,23 67,109l-100 -20zm2174 17c37,-69 14,-55 92,-75 -26,70 -12,62 -92,75zm-5712 116c-20,-32 -34,-47 -12,-91 3,4 8,5 9,11 1,7 7,9 9,12l79 5c28,-12 72,-21 103,-32 12,-67 23,-63 62,-94 -18,116 -123,223 -250,188zm3270 -258c70,-28 77,-27 148,12 -31,93 -121,121 -148,-12zm2800 248l108 80c-95,5 -44,-68 -140,20l119 80c-53,2 -66,-74 -161,-24 4,5 10,6 13,14 2,8 10,11 13,13l14 11c3,3 10,7 14,10 28,23 19,9 44,40l-128 -23c27,98 49,39 -38,90 21,117 53,40 -25,89 19,71 -18,9 38,66 -75,36 -3,-4 -122,170 -37,54 -61,53 -125,79 39,-310 -39,-359 -241,-471 40,-104 174,-179 321,35l34 39c4,-5 11,-17 13,-13 18,44 56,-484 345,-659 -3,110 3,80 26,107 -68,71 -42,123 -83,203l-36 42zm-3387 -243l83 -4c-28,384 420,348 497,302 109,-67 11,-113 149,-144 4,138 -1,173 81,271 53,64 140,130 229,143 342,49 365,-207 489,-259 8,183 -233,316 -403,326 -279,15 -343,-134 -424,-322 -81,13 -103,57 -220,68 -233,21 -417,-117 -481,-380zm3641 16l-2 -73 59 54c36,-30 40,-51 86,-20 -22,30 55,38 -143,39zm-669 -39c37,-31 -63,-24 23,-16 48,5 6,-7 36,16 -58,41 -13,35 -59,0zm164 -129c-11,72 16,45 -50,52 15,-47 7,-35 50,-52zm-195 0c-15,91 4,35 -41,68 -4,-7 -43,9 -15,-44 17,-32 -18,-16 55,-24zm755 18c7,-5 -29,-77 63,0 -4,3 -9,4 -11,8l-52 -8zm-639 0c-37,34 11,18 -68,29 21,-51 -33,-30 28,-45 85,-22 3,-11 40,17zm-2292 22c21,-48 -25,-45 48,-55 104,-15 59,22 70,33 -38,57 37,31 -50,44 -110,16 -37,-3 -68,-21zm-1039 25c17,-17 10,-17 49,-43 1,-1 53,-29 59,-31 58,-23 370,-51 370,104 -273,-103 -177,-114 -478,-31zm2078 49c59,-113 228,-261 408,-276 40,104 254,14 455,146 71,47 77,43 163,57 14,51 22,53 3,102l-222 10 -146 78c-104,145 -99,127 -320,103l-10 40c-1,2 -5,11 -5,13 -1,2 -4,9 -7,14l-160 -10 38 118c-106,-31 -165,-84 -304,-80 76,-230 147,-189 349,-200 -30,-63 -110,-50 -194,-47 55,-150 196,-114 299,-190 -209,-5 -221,54 -348,122zm-4165 7c137,142 287,104 373,-86 36,-78 38,-154 68,-211 42,44 57,69 -11,204 -36,72 -65,117 -116,172 -130,139 -363,10 -315,-79zm5330 -235c-14,58 14,22 -36,46 14,-43 -61,-20 36,-46zm-5209 -68c-15,132 19,103 -108,124 10,-53 1,-57 22,-87 39,-58 14,-28 86,-37zm6012 67l118 -10c-16,44 20,51 -78,41 -9,-1 -29,27 -40,-30zm-4794 15l0 0zm4818 -126c49,-15 31,-16 49,22 -68,35 -27,-5 -49,-22zm-738 44l26 -31c56,-13 5,-14 37,9 -4,3 -10,4 -12,10l-51 12zm-98 -22c36,-16 19,-14 50,0 -21,18 45,63 -50,0zm-3690 67l48 57c-85,20 -79,19 -140,-35 22,-73 26,-66 104,-93 12,33 12,-1 4,33 -1,4 -11,33 -16,38zm-1671 -117c-1,-110 4,-114 78,-120 7,100 2,111 -78,120zm5457 -108l22 69 -65 6c15,-62 0,-40 43,-75zm-5550 -43c0,0 40,-27 18,65 -16,69 -2,23 -40,40 -29,-51 -35,-70 22,-105zm6172 36l42 64c-31,-7 -82,-26 -42,-64zm-4570 29c45,-26 -23,-20 44,-21 125,-3 28,-4 72,24 -28,21 12,30 -53,29 -95,-1 -51,-21 -63,-32zm1728 -91c22,39 68,-6 0,85 -11,-13 -27,28 -21,-39 4,-46 4,-23 21,-47zm-111 -13c30,35 30,-50 22,40 -8,88 4,6 -22,45 -27,-40 -61,-12 0,-84zm2731 -31c32,54 12,23 0,48 -9,-10 -79,-20 0,-48zm155 3c62,-22 19,23 129,-16 0,2 34,73 -89,50 -49,-9 -18,12 -40,-34zm-5642 -22c39,-78 127,-94 212,-115l-11 350c-104,-8 -1,-5 -104,-43 -58,-22 -51,2 -115,-37 50,-115 53,3 108,-111 -7,-2 -41,-11 -44,-13 -43,-22 -17,-5 -47,-32zm2712 -131l-13 109c-20,-15 -48,40 -34,-45 15,-92 -3,-24 47,-63zm170 -42c6,-6 14,-20 17,-14l92 -48c104,-47 76,-45 104,12l-213 50zm-255 -50c1,-13 38,-40 26,0 -5,18 -29,59 -26,0zm-82 0c0,-9 33,-44 21,0 -7,27 -22,29 -21,0zm-2998 35l17 -205 95 3c6,63 -20,108 -51,148 -56,73 2,12 -61,54zm3308 -271c16,-60 5,-47 59,-75l-59 75zm-855 774c-8,-165 2,-224 -57,-301 -50,-66 -141,-121 -248,-59 30,72 -9,16 98,52 146,49 116,106 164,396l-78 0c-13,-116 27,-189 -42,-282 -80,-107 -144,-82 -217,-121 113,-257 248,-44 365,-16 5,-223 -29,-434 125,-608 9,-10 112,-118 124,-125 74,749 -35,311 -54,855 122,-17 196,-146 381,-22 59,39 61,62 67,145 -271,-108 -86,-49 -293,-34 -115,8 20,-11 -107,-10 -89,109 -67,117 -128,242 -10,-51 24,-461 42,-530l67 -357c27,-156 6,-94 -7,-114l-201 889zm1004 -984c-22,76 11,50 -63,63 49,-77 -1,-27 63,-63zm-482 11c-6,68 18,41 -44,49 12,-34 -5,-27 44,-49zm249 55l37 -60m1584 40c59,46 49,28 139,44 -38,96 -58,38 -78,134 59,57 72,31 111,55 48,29 0,-10 37,40 -77,35 -163,66 -268,85 -54,9 -95,13 -133,44 -95,78 -11,213 172,60 73,-62 103,-77 222,-56 -19,111 -20,15 -54,105l156 78c-50,86 -46,37 -81,122 3,5 8,8 10,16 11,50 75,36 129,161l-49 87c27,52 29,44 57,98 -98,-17 -192,-52 -252,-117 -50,-54 34,-3 -41,-42 -222,-116 -494,104 -576,149 111,-493 203,-507 293,-770 66,-1 66,21 105,-46 30,-52 56,-81 64,-154 -28,13 -71,29 -90,39 -5,3 -39,26 -39,26 -38,23 -1,4 -54,29 -8,-174 3,-173 47,-328 14,-50 26,-85 41,-135 7,-23 10,-48 19,-69 32,-78 8,-24 38,-55l-3 217 167 6c-17,85 -48,127 -87,176zm-1425 -121c6,-49 7,-49 43,-65 -2,73 6,34 -43,65zm-116 7c24,-71 11,-40 61,-68 -30,66 -15,35 -61,68zm-340 -61c-23,76 14,18 -47,51 23,-63 -15,-33 47,-51zm553 62c19,-87 -20,-50 66,-66 -22,49 -2,48 -66,66zm-319 9c28,-82 2,-57 85,-82 -27,56 15,15 -29,53 -42,36 14,-6 -56,28zm-108 2c23,-86 4,-74 98,-78 -37,79 -3,54 -98,78zm140 -192l11 42c-1,3 -8,10 -11,15 -2,-3 -73,29 0,-57zm-2951 -47c126,-59 157,-13 159,-167 36,-7 83,-9 110,-23 47,-24 4,-28 94,-57 13,35 31,67 40,92 22,64 4,59 39,129l113 30c13,225 32,86 -18,276 -25,94 -24,203 -73,277l-29 -170c-8,-1 -51,-10 -53,-10 -68,-3 -23,2 -48,9l-112 21c48,23 141,63 176,85 8,79 -31,36 9,125 37,85 47,24 36,169 -157,-19 -130,104 -304,38 -101,-38 -14,-60 -229,-172 16,-85 18,-22 50,-116 -141,-20 -285,-103 -141,-197 9,-6 41,-22 46,-25 32,-22 27,-18 41,-39 -23,-57 7,-5 -59,-67 58,-49 77,-48 165,-56l-11 -152zm4233 -81l77 0c-45,38 78,34 -31,22 -68,-7 -3,13 -46,-22zm-39 642l-51 -190c-52,82 6,193 6,303 0,120 -55,237 -43,311 -64,-41 -20,13 -59,-57 -1,-1 -17,-51 -22,-64 -19,-48 -26,-68 -66,-91 16,137 86,229 85,329 -1,71 -26,53 -5,129 -53,-24 -32,49 -83,-75 -15,-36 -14,-67 -28,-103 -17,-44 -26,-48 -51,-83 -51,-73 -1,-41 -83,-71 37,115 171,221 119,363 -5,-4 -14,-17 -16,-13l-44 -56c-78,-133 -24,-119 -143,-177 36,131 114,118 157,368 14,83 26,104 -10,161 -52,-152 -48,-178 -140,-302 -36,-49 -127,-168 -243,-177 32,91 314,168 332,633 7,174 -25,134 -33,146l-74 -73c-3,-3 -10,-9 -15,-13 -77,24 -99,41 -193,22l-44 -135c-2,5 -12,-6 -25,-19l-22 -24c-2,-3 -6,-9 -9,-14 53,-49 60,-27 122,-67l-60 -41c-134,-77 -80,-53 -179,-137 0,-60 6,-75 20,-122 -30,-9 -95,-42 -148,-136 96,-40 40,15 124,-62 -35,-16 -74,-34 -102,-53 -63,-42 -48,-26 -62,-98 84,-40 176,-49 292,-58 -39,-86 -48,-38 -52,-136l207 -1 -6 -131 180 -5 44 -94c185,111 21,250 247,250 33,-252 -198,-171 -186,-469 92,40 61,65 161,72l50 -211c88,30 23,25 99,49l27 -157c97,44 3,33 112,49 92,-54 59,-91 163,-139 -144,268 -196,600 -252,670zm-4330 -553l84 38c-14,65 18,36 -55,79 -30,18 -63,29 -104,44l66 -444c38,50 27,77 27,149l37 15c70,24 -29,-20 22,7 -39,46 -56,55 -77,111zm846 -502c-5,-3 -14,-16 -16,-11l-51 -43c-68,-54 -95,-51 -80,-215 91,-10 50,13 145,34l60 -111c10,125 -42,222 -58,345z"/> <path class="fil1" d="M4005 11759l0 10c10,-4 20,-7 30,-10l-30 0zm1476 -6l-16 0 7 3 9 -3z"/> <path class="fil1" d="M9884 6200c69,-49 170,-44 209,-4 46,48 11,0 28,74 -295,5 -210,0 -237,-70zm-240 -88c84,-4 257,-112 446,-23 -54,36 -110,24 -190,33 -97,10 -108,8 -166,56 53,56 1,30 90,42 -10,84 1,108 65,121 82,17 192,2 272,-10 0,-10 -3,-65 -3,-66 8,-91 -13,43 4,-38 1,-5 5,-12 6,-16 1,-4 5,-10 8,-15l31 180 -310 34c4,5 7,9 11,20 3,10 8,16 12,19 27,17 4,15 54,19l305 -35c3,-150 -86,-294 -131,-406 -107,-19 -169,-18 -284,-18 -129,0 -239,-42 -223,101z"/> <path class="fil1" d="M7485 5345c123,-24 468,-87 562,-36 105,58 285,219 332,314l-534 70c-128,-163 -162,-192 -307,-294 -72,-51 -13,4 -53,-55zm317 364c88,76 602,-4 666,-43 -27,-117 -311,-363 -409,-413 -86,-44 -580,30 -674,80l418 376z"/> <path class="fil1" d="M9533 5154l-28 62c-2,4 -6,10 -8,14l-31 61c-76,-49 -9,-29 -83,-43 -11,154 165,205 166,-39l172 51c-88,74 -120,15 -109,174 58,36 86,87 148,10 -5,-3 -12,-6 -16,-7 -4,-1 -12,-5 -17,-6 -6,-2 -30,-8 -36,-10 -48,-14 -14,0 -46,-15 38,-94 19,-69 128,-34l18 -58c1,-7 5,-8 8,-12 80,5 203,0 247,49l118 182c-4,4 -11,9 -14,12l-24 26c-3,5 -7,11 -9,16 -22,45 -6,18 -10,65l63 -36c70,-26 60,2 70,6 -9,105 9,41 -88,89 34,27 -55,25 68,30 84,3 78,-55 71,-171l-95 -20c15,-137 3,-54 -61,-153 -45,-70 -19,-96 -92,-123 -315,1 -293,-72 -510,-120z"/> <path class="fil1" d="M7903 5559c-24,-26 -40,-37 -66,-60l-69 -90c77,0 182,-13 252,14 58,22 100,59 115,115l-232 21zm-283 -187c54,81 62,30 141,111 129,130 111,203 481,93 -14,-91 -161,-193 -206,-214 -65,-30 -374,-14 -417,11z"/> <path class="fil1" d="M6029 7489l-26 23c-2,2 -32,20 -34,21 25,117 95,155 97,310 2,138 -6,272 48,374 37,-56 21,-22 6,-136 -29,-208 92,-423 5,-534 -173,-221 -62,-214 -144,-338 -58,95 19,198 48,279z"/> <path class="fil1" d="M6611 8011c0,251 -7,58 -73,260 -94,-28 -13,-25 -106,-41 17,54 119,194 186,207l-34 -155c150,-30 105,-55 239,-104l4 -117c-50,-48 -62,-49 -113,-85l-103 35z"/> <path class="fil1" d="M6066 8837c-86,135 -74,52 -29,178l23 108c70,-3 64,-50 90,-111 104,40 13,-18 90,67 8,-100 7,-107 -40,-184 -53,-87 -38,-86 -107,-133l-26 75z"/> <path class="fil1" d="M4969 8267c101,80 109,92 221,-22 -2,-64 -14,-112 -33,-153l-132 -5c-27,70 -52,101 -56,181z"/> <path class="fil1" d="M5580 10179c6,54 20,139 21,188 2,90 -24,43 -32,137 100,-4 95,-65 113,-158 6,-33 11,-94 17,-112 25,-68 22,-29 75,-78 -30,-10 -128,12 -209,-4 -118,-24 -68,-56 -202,-59l83 64c35,13 81,18 133,21z"/> <path class="fil1" d="M5426 4666c55,-44 30,3 45,-87l34 89c52,-56 16,-26 84,-55 85,133 144,38 148,6 7,-64 7,22 3,-37 -2,-29 -9,-37 -20,-78 -103,3 -86,-4 -134,56 -63,-26 -125,-73 -168,11 -42,82 -7,74 8,96z"/> <path class="fil1" d="M5560 4335l20 52c263,4 252,-11 424,-106 141,39 156,116 312,118 -40,-86 -251,-171 -267,-170 -89,36 -88,70 -201,105 -152,48 -150,4 -287,1z"/> <path class="fil1" d="M8260 9572c-6,-67 -148,-400 -271,-407 2,112 98,190 183,332 45,74 15,67 88,75z"/> <path class="fil1" d="M6640 4613c-62,31 -29,-7 -42,-14 24,-19 -21,-70 65,-22 -16,44 16,16 -23,36zm110 23l3 -99c-46,-26 -68,-40 -145,-39 -156,127 -44,234 142,138z"/> <path class="fil1" d="M6209 4577c25,84 60,103 165,80 45,-77 39,-85 2,-162 -104,-14 -142,3 -168,82z"/> <path class="fil1" d="M5093 10381c68,-27 99,-124 74,-165 -77,-128 -29,-81 -96,-105 -48,75 -19,209 22,270z"/> <path class="fil1" d="M6049 4466c-17,74 11,61 -84,58l2 -75 81 16zm-115 111c141,31 182,-5 152,-172 -164,-31 -200,50 -152,172z"/> <path class="fil1" d="M8946 5074c46,-53 -77,-20 57,-58 -25,62 11,34 -57,58zm141 -92c-123,-31 -185,-25 -173,125 134,49 187,34 173,-125z"/> <path class="fil1" d="M7735 4627c-79,-31 -9,-37 0,-48 2,4 9,10 9,11 0,1 3,10 4,12 21,93 18,-24 -13,25zm-64 78c132,15 168,9 149,-128 -101,-63 -180,-43 -149,128z"/> <path class="fil1" d="M8340 4777c-10,111 44,127 144,98 85,-146 -41,-175 -144,-98z"/> <path class="fil1" d="M9123 6755l223 26c4,12 69,69 156,19l-192 -107c-54,5 -60,9 -113,22 -91,21 -33,-23 -75,41z"/> <path class="fil1" d="M8689 4961c53,63 25,24 0,57 -17,-21 -64,-6 0,-57zm-57 94c170,37 206,-26 119,-134 -120,-9 -148,8 -119,134z"/> <path class="fil1" d="M7202 4696c-71,-24 -28,-13 -50,-24 -34,-17 24,-10 -53,-21 0,182 295,143 192,-35 -77,28 -24,34 -89,80z"/> <path class="fil1" d="M6908 4455c53,39 66,22 65,100 -2,1 -39,16 -40,17 -38,23 -20,10 -47,35 246,102 180,-261 22,-151z"/> <path class="fil1" d="M6301 8082l23 -12c2,-2 10,-7 13,-9l38 112 88 0c-6,-72 -54,-179 -161,-186l-1 95z"/> <path class="fil1" d="M5381 10353l-6 -164 -92 -5c-5,38 -17,87 -6,120 24,72 29,47 104,49z"/> <path class="fil1" d="M7493 4733l-73 67c112,49 151,-32 133,-152l-121 -19 61 104z"/> <path class="fil1" d="M8268 10354c63,-34 40,-22 45,-269 -104,54 -61,238 -45,269z"/> <path class="fil1" d="M9389 3212l1 -93 -165 -9c12,56 39,85 97,104 130,43 22,11 67,-3z"/> <path class="fil1" d="M5914 10402c46,-25 38,39 37,-157l45 -57 -148 -8c111,85 6,104 65,221z"/> <path class="fil1" d="M8066 10450c144,-12 137,-33 131,-179 -23,16 -3,-3 -31,28 -89,97 -87,69 -100,151z"/> <path class="fil1" d="M4827 10329l-5 -265c-49,34 -61,60 -57,134 9,163 56,129 61,131z"/> <path class="fil1" d="M7913 4702c32,42 -3,16 67,53 -22,41 -22,33 -27,41 -16,29 -2,-19 -25,63l96 -38c48,-113 4,-145 -111,-119z"/> <path class="fil1" d="M6381 8653c-40,52 117,200 133,211l44 -107c-98,33 -62,-9 -177,-104z"/> <path class="fil1" d="M10137 3755c100,44 101,-30 192,-22 70,6 116,83 191,44 -89,-78 -279,-85 -383,-22z"/> <path class="fil1" d="M7800 8865c32,-142 95,4 131,-130 -107,7 -185,58 -216,149l85 -19z"/> <path class="fil1" d="M5873 4625l3 -80 -120 -29c9,125 -8,121 118,109z"/> <path class="fil1" d="M8128 4866c30,21 2,22 56,28 97,11 86,-76 89,-101l-129 44c-46,29 5,-23 -15,28z"/> <path class="fil1" d="M10215 3882c-67,-45 -172,-88 -250,-9l250 9z"/> <path class="fil1" d="M9360 7128c70,-2 33,40 108,-82l14 -23c-72,-34 -114,70 -122,106z"/> <path class="fil1" d="M8918 6797c60,-6 132,-51 162,-86 -86,-35 -137,20 -162,86z"/> <path class="fil1" d="M8765 6651c-8,-63 -28,-159 -87,-175 7,33 15,68 27,110 26,88 -5,65 59,64z"/> <path class="fil1" d="M5268 10089c-27,-59 23,-12 -51,-56 -40,-23 -47,-23 -98,-28 24,52 96,105 149,84z"/> <path class="fil1" d="M6406 4421c47,27 101,48 165,22 -49,-36 -105,-44 -165,-22z"/> <path class="fil1" d="M6942 2961c35,27 69,61 120,38 -48,-49 -25,-40 -120,-38z"/> <path class="fil1" d="M8347 9949c86,-36 42,-69 9,-97l-9 97z"/> <path class="fil1" d="M5204 4733c52,-84 7,-59 0,-71 -39,51 -29,-71 -20,30 6,58 -22,8 20,41z"/> <path class="fil1" d="M9178 7168c63,-86 4,-50 0,-56 -49,61 -13,39 0,56z"/> <path class="fil1" d="M6669 9155c18,-31 23,-28 0,-69 -29,30 -12,-9 -16,42 0,2 6,17 6,14 0,-3 7,9 10,14z"/> </g> </svg>